<?xml version="1.0" encoding="UTF-8"?>
<svg version="1.1" xmlns="http://www.w3.org/2000/svg" width="2872" height="3051">
<path d="M0 0 C2.34571215 0.17915775 4.69185317 0.35178892 7.03808594 0.52398682 C51.67103177 3.83947085 96.18285991 9.83640144 140.05371094 18.73040771 C142.23516323 19.1719213 144.41776508 19.60736157 146.60058594 20.04205322 C184.27294419 27.58473794 221.74082984 37.11724819 258.22558594 49.16998291 C259.61046959 49.62179129 260.99557106 50.07293242 262.38085938 50.52349854 C310.3786527 66.1467226 357.20944046 84.12652724 402.81152344 105.81842041 C403.60075195 106.19361816 404.38998047 106.56881592 405.203125 106.9553833 C406.55454466 107.60174784 407.90328173 108.25378173 409.24804688 108.91387939 C412.0412288 110.26292182 414.6940622 111.30164272 417.68652344 112.14263916 C421.65296852 113.29404651 425.0695185 114.90677452 428.72558594 116.79498291 C429.41555664 117.14544678 430.10552734 117.49591064 430.81640625 117.85699463 C436.20029294 120.60535228 441.53656714 123.44234589 446.8581543 126.30914307 C450.63353598 128.33923997 454.43907477 130.28371254 458.28808594 132.16998291 C464.33333178 135.17264135 470.17953164 138.48344586 476.00927734 141.87994385 C478.55104712 143.35942297 481.0974062 144.83086525 483.64355469 146.30279541 C504.99499639 158.67139568 525.95587471 171.44300321 546.40063477 185.26617432 C549.33152194 187.24137596 552.27367001 189.19891929 555.21777344 191.15435791 C568.38403046 199.92476507 581.493208 208.83200027 593.92871094 218.61920166 C597.30063042 221.25869601 600.76378797 223.76796845 604.22583008 226.28741455 C611.21624243 231.37712293 618.050287 236.53708213 624.5871582 242.19927979 C628.35508035 245.46022336 632.22391249 248.55618665 636.16308594 251.60748291 C642.76862949 256.7411639 649.11918887 262.1358675 655.43603516 267.61871338 C658.54427046 270.3130827 661.66633165 272.99130301 664.78808594 275.66998291 C665.35978516 276.16232422 665.93148437 276.65466553 666.52050781 277.16192627 C667.06384766 277.62864746 667.6071875 278.09536865 668.16699219 278.57623291 C668.93873779 279.23945557 668.93873779 279.23945557 669.72607422 279.91607666 C671.15978619 281.11496053 672.6431703 282.25368132 674.12792969 283.38873291 C674.82015625 283.97654541 675.51238281 284.56435791 676.22558594 285.16998291 C676.22558594 285.82998291 676.22558594 286.48998291 676.22558594 287.16998291 C677.06669922 287.53543213 677.06669922 287.53543213 677.92480469 287.90826416 C684.62405356 291.5820458 690.09821361 297.96583692 695.41748047 303.39393616 C697.17171077 305.11706298 698.98370699 306.71438586 700.85449219 308.30938721 C705.61299448 312.4501207 710.07609937 316.85864423 714.53808594 321.31451416 C715.39241211 322.16551193 716.24673828 323.0165097 717.12695312 323.89329529 C718.91650791 325.6778192 720.7047389 327.46367154 722.49169922 329.25079346 C725.24003417 331.99691953 727.99629618 334.73492461 730.75292969 337.47271729 C732.49430328 339.21116072 734.23520592 340.95007604 735.97558594 342.68951416 C736.80356689 343.5103096 737.63154785 344.33110504 738.48461914 345.17677307 C739.23960693 345.93483749 739.99459473 346.69290192 740.77246094 347.47393799 C741.44116211 348.14121414 742.10986328 348.8084903 742.79882812 349.49598694 C744.22558594 351.16998291 744.22558594 351.16998291 744.22558594 353.16998291 C744.88558594 353.16998291 745.54558594 353.16998291 746.22558594 353.16998291 C747.45996094 354.39263916 747.45996094 354.39263916 748.97558594 356.23248291 C752.5993658 360.50336632 756.39028116 364.59034307 760.22558594 368.66998291 C764.4562293 373.18200579 768.66653387 377.69696175 772.69433594 382.39263916 C773.84435223 383.7274795 775.01451499 385.04500541 776.19433594 386.35357666 C777.16886719 387.43832275 777.16886719 387.43832275 778.16308594 388.54498291 C778.74960938 389.19209229 779.33613281 389.83920166 779.94042969 390.50592041 C781.22558594 392.16998291 781.22558594 392.16998291 781.22558594 394.16998291 C781.88558594 394.16998291 782.54558594 394.16998291 783.22558594 394.16998291 C784.78417969 395.90045166 784.78417969 395.90045166 786.66308594 398.35748291 C789.94543644 402.57082737 793.31805476 406.67460301 796.78808594 410.73248291 C801.07947205 415.77409605 805.2117654 420.90349751 809.22558594 426.16998291 C809.92554687 427.07361572 810.62550781 427.97724854 811.34667969 428.90826416 C823.61713861 444.76516264 835.57739315 460.85083562 847.22558594 477.16998291 C847.7425 477.89314697 848.25941406 478.61631104 848.79199219 479.36138916 C865.57461131 502.87388061 881.23325659 527.14651202 895.94091797 552.00933838 C897.10545029 553.96793036 898.28373035 555.91694007 899.47167969 557.86138916 C912.41440089 579.07101861 923.96468184 601.03624064 935.22558594 623.16998291 C935.63502441 623.97226318 936.04446289 624.77454346 936.46630859 625.60113525 C938.40253558 629.40134861 940.30887176 633.2147812 942.18408203 637.04547119 C942.93864397 638.58466435 943.6973139 640.12184587 944.45849609 641.65777588 C958.77364407 670.59375178 971.13996253 700.37202299 982.78222656 730.46783447 C984.29546998 734.34923216 985.83742816 738.21812577 987.38964844 742.08404541 C1011.57468781 802.37132033 1027.49677756 866.38772542 1039.22558594 930.16998291 C1039.45344788 931.40633484 1039.45344788 931.40633484 1039.68591309 932.66766357 C1045.7239322 965.58791035 1050.0626427 998.75522765 1053.19433594 1032.07623291 C1053.25681519 1032.73828735 1053.31929443 1033.4003418 1053.38366699 1034.0824585 C1056.38069501 1067.14933568 1057.61144951 1100.20685996 1057.54364395 1133.40081024 C1057.537983 1136.22126828 1057.535175 1139.04172025 1057.53256226 1141.86218262 C1057.47020456 1188.25344665 1054.76404258 1234.0979129 1049.22558594 1280.16998291 C1049.12739563 1280.98755066 1049.02920532 1281.80511841 1048.92803955 1282.64746094 C1038.39927674 1369.5225886 1017.17339591 1455.69327785 966.31347656 1587.60455322 C965.22137092 1590.17992263 964.15019915 1592.7630837 963.08496094 1595.34967041 C959.72261115 1603.49293568 956.20090737 1611.45770056 952.17871094 1619.30279541 C949.73817032 1624.0845227 947.46331859 1628.9446981 945.16308594 1633.79498291 C921.84449904 1682.74161325 921.84449904 1682.74161325 912.22558594 1697.16998291 C911.56558594 1697.16998291 910.90558594 1697.16998291 910.22558594 1697.16998291 C909.96616211 1698.03301025 909.70673828 1698.8960376 909.43945312 1699.78521729 C908.19688775 1703.25000538 906.66581571 1706.1544837 904.80371094 1709.32623291 C904.46762314 1709.90123032 904.13153534 1710.47622772 903.78526306 1711.06864929 C902.68851115 1712.93965838 901.58277168 1714.80513168 900.47558594 1716.66998291 C900.09399323 1717.31613556 899.71240051 1717.96228821 899.31924438 1718.62802124 C879.3846553 1752.37551302 857.58374468 1785.4066932 833.88964844 1816.63873291 C831.61821587 1819.63529511 829.41208184 1822.67318823 827.22558594 1825.73248291 C823.47895189 1830.92739567 819.48373396 1835.90737566 815.43652344 1840.8694458 C813.13144523 1843.71077484 810.95161603 1846.52730583 808.99121094 1849.61920166 C808.40855469 1850.46095947 807.82589844 1851.30271729 807.22558594 1852.16998291 C806.56558594 1852.16998291 805.90558594 1852.16998291 805.22558594 1852.16998291 C805 1852.69334229 804.77441406 1853.21670166 804.54199219 1853.75592041 C802.75379047 1857.03517461 800.47893181 1859.87985767 798.16308594 1862.79498291 C797.67211426 1863.41671387 797.18114258 1864.03844482 796.67529297 1864.67901611 C793.07893558 1869.19338186 789.30582125 1873.50409772 785.39746094 1877.75201416 C783.12328556 1880.28387488 780.9838207 1882.89356879 778.85058594 1885.54498291 C774.69230325 1890.68467847 770.28687093 1895.53901189 765.79589844 1900.38482666 C761.86451903 1904.64481681 758.05184916 1909.00386293 754.31542969 1913.43560791 C753.68765625 1914.17295166 753.05988281 1914.91029541 752.41308594 1915.66998291 C751.84976563 1916.34029541 751.28644531 1917.01060791 750.70605469 1917.70123291 C749.22558594 1919.16998291 749.22558594 1919.16998291 747.22558594 1919.16998291 C746.98859985 1919.73163147 746.75161377 1920.29328003 746.50744629 1920.87194824 C744.92914292 1923.7014264 743.00581485 1925.64412352 740.71582031 1927.9385376 C740.26032303 1928.39753952 739.80482574 1928.85654144 739.33552551 1929.32945251 C737.83510664 1930.83864346 736.32752709 1932.34043703 734.81933594 1933.84185791 C733.77294117 1934.88960016 732.72684343 1935.93763913 731.68103027 1936.98596191 C729.49192551 1939.17801141 727.29925324 1941.36641171 725.10400391 1943.55230713 C722.28584825 1946.35904045 719.47680339 1949.17469429 716.67034149 1951.99311447 C714.51387486 1954.15679322 712.35268592 1956.31570419 710.1900177 1958.47318268 C709.15189138 1959.50997216 708.11525606 1960.54825672 707.0801239 1961.58803558 C705.63669582 1963.0365211 704.18619682 1964.47795015 702.73535156 1965.91900635 C701.91087524 1966.74189148 701.08639893 1967.56477661 700.23693848 1968.41259766 C698.22558594 1970.16998291 698.22558594 1970.16998291 696.22558594 1970.16998291 C696.22558594 1970.82998291 696.22558594 1971.48998291 696.22558594 1972.16998291 C694.93261719 1973.47467041 694.93261719 1973.47467041 693.03808594 1975.04498291 C690.25164815 1977.40119871 687.52888217 1979.80044418 684.87011719 1982.29888916 C684.28963623 1982.8436792 683.70915527 1983.38846924 683.11108398 1983.94976807 C681.94388931 1985.04881838 680.77994227 1986.15132862 679.61938477 1987.25738525 C675.4458227 1991.16998291 675.4458227 1991.16998291 673.22558594 1991.16998291 C673.22558594 1991.82998291 673.22558594 1992.48998291 673.22558594 1993.16998291 C671.6527191 1994.58436697 670.01418598 1995.92602692 668.35058594 1997.23248291 C664.54410597 2000.27086092 660.86290932 2003.36254469 657.28808594 2006.66998291 C652.83482912 2010.72927072 648.12694113 2014.30060914 643.27636719 2017.86920166 C640.27678935 2020.13136728 637.40487274 2022.4924302 634.53808594 2024.91998291 C627.68649469 2030.69209168 620.56677385 2036.08825361 613.42675781 2041.49664307 C611.27456072 2043.13275208 609.13136892 2044.77988521 606.99121094 2046.43170166 C596.88552791 2054.22499772 586.61602545 2061.76130685 576.22558594 2069.16998291 C575.15824219 2069.93375244 575.15824219 2069.93375244 574.06933594 2070.71295166 C563.27345899 2078.43279749 552.31290719 2085.87587432 541.22558594 2093.16998291 C540.42749512 2093.69737061 539.6294043 2094.2247583 538.80712891 2094.76812744 C527.3101604 2102.35900147 515.66423623 2109.63613105 503.80273438 2116.64312744 C501.16936227 2118.20329314 498.54457386 2119.77716664 495.92089844 2121.35357666 C484.4085926 2128.2470549 472.73789304 2134.77345352 460.90917969 2141.10748291 C456.64550658 2143.39284019 452.42176011 2145.73786198 448.21435547 2148.12481689 C439.42034604 2153.10585275 430.42130574 2157.50976026 421.26855469 2161.79107666 C416.77249119 2163.89682792 412.33726854 2166.10554153 407.91308594 2168.35748291 C401.58302534 2171.5643418 395.15707497 2174.45879697 388.62792969 2177.23638916 C385.48518053 2178.59014152 382.38900142 2180.03037473 379.29623413 2181.49446106 C369.66153781 2186.04762064 359.88146875 2190.21542803 350.03808594 2194.29498291 C349.15185547 2194.66270813 348.265625 2195.03043335 347.35253906 2195.40930176 C329.181333 2202.92835163 310.81383417 2209.75929355 292.22558594 2216.16998291 C291.52044861 2216.41405884 290.81531128 2216.65813477 290.08880615 2216.90960693 C270.76196358 2223.59567974 251.30629448 2229.650858 231.62548828 2235.20611572 C228.56724032 2236.07312441 225.51447061 2236.95620627 222.46386719 2237.84967041 C148.53399565 2259.45825304 72.1308856 2270.91754902 -4.52441406 2276.85748291 C-5.6796608 2276.94889053 -5.6796608 2276.94889053 -6.85824585 2277.04214478 C-32.14473796 2279.01960268 -57.48329899 2279.37962035 -82.83691406 2279.35748291 C-83.52840546 2279.35721603 -84.21989685 2279.35694916 -84.93234253 2279.35667419 C-109.59116308 2279.34479871 -134.16759884 2278.86138165 -158.77441406 2277.16998291 C-159.70481506 2277.10681885 -160.63521606 2277.04365479 -161.59381104 2276.97857666 C-253.62126006 2270.66905088 -343.8311544 2253.36372061 -431.77441406 2225.60748291 C-433.04936234 2225.20555222 -433.04936234 2225.20555222 -434.35006714 2224.79550171 C-453.32413671 2218.79839674 -472.03475913 2212.18103291 -490.62329102 2205.08062744 C-493.36528295 2204.03415603 -496.10978519 2202.99446562 -498.85449219 2201.95513916 C-506.76299356 2198.94851195 -514.61811682 2195.92933253 -522.27954102 2192.32818604 C-527.15112764 2190.06663334 -532.13201413 2188.05322663 -537.08691406 2185.98248291 C-553.87334962 2178.91710076 -570.45518703 2171.50285279 -586.68164062 2163.22808838 C-588.99408397 2162.05891789 -591.31674129 2160.91191342 -593.64160156 2159.76763916 C-602.26961951 2155.51223995 -610.77520568 2151.13977676 -619.12036133 2146.35162354 C-623.25116418 2143.99146314 -627.43210469 2141.81639464 -631.71191406 2139.73248291 C-639.17029803 2136.0579465 -646.26612257 2131.86028378 -653.39501953 2127.58843994 C-655.8901567 2126.10098386 -658.39530322 2124.63170355 -660.90332031 2123.16607666 C-684.26519795 2109.49585401 -707.10415587 2095.06684766 -729.30175781 2079.57623291 C-731.96681602 2077.72090282 -734.65073134 2075.8950716 -737.34082031 2074.07623291 C-745.49433149 2068.55664476 -753.51552747 2062.98113526 -761.26269531 2056.90045166 C-764.87708482 2054.06801626 -768.56012839 2051.33020671 -772.24243164 2048.5869751 C-780.24937601 2042.62168015 -788.10972071 2036.5698397 -795.77441406 2030.16998291 C-798.45508682 2027.95325908 -801.14373193 2025.74648826 -803.83691406 2023.54498291 C-804.52043945 2022.98561035 -805.20396484 2022.42623779 -805.90820312 2021.84991455 C-810.49677364 2018.12543267 -815.18980806 2014.66162661 -820.14941406 2011.43951416 C-820.95378906 2010.81109619 -820.95378906 2010.81109619 -821.77441406 2010.16998291 C-821.77441406 2009.50998291 -821.77441406 2008.84998291 -821.77441406 2008.16998291 C-822.33644531 2007.9263501 -822.89847656 2007.68271729 -823.47753906 2007.43170166 C-826.21461191 2005.92817355 -828.23237348 2004.10298543 -830.52441406 2001.98248291 C-831.40613281 2001.17424072 -832.28785156 2000.36599854 -833.19628906 1999.53326416 C-834.04707031 1998.75338135 -834.89785156 1997.97349854 -835.77441406 1997.16998291 C-837.10340521 1995.9983723 -838.43637446 1994.83124899 -839.77441406 1993.66998291 C-847.32968632 1987.07985521 -854.72453222 1980.31736144 -862.06884766 1973.49395752 C-865.78736177 1970.04868351 -869.57773373 1966.71032413 -873.48144531 1963.47467041 C-874.77441406 1962.16998291 -874.77441406 1962.16998291 -874.77441406 1960.16998291 C-875.76441406 1959.83998291 -876.75441406 1959.50998291 -877.77441406 1959.16998291 C-877.77441406 1958.50998291 -877.77441406 1957.84998291 -877.77441406 1957.16998291 C-878.33974854 1956.92989502 -878.90508301 1956.68980713 -879.48754883 1956.44244385 C-882.25092985 1954.90483929 -884.13368851 1953.05285079 -886.36425781 1950.81060791 C-887.23115234 1949.94177979 -888.09804688 1949.07295166 -888.99121094 1948.17779541 C-889.88904297 1947.26771729 -890.786875 1946.35763916 -891.71191406 1945.41998291 C-892.60587891 1944.52537354 -893.49984375 1943.63076416 -894.42089844 1942.70904541 C-898.75714507 1938.34382608 -902.92023528 1933.96529837 -906.77441406 1929.16998291 C-909.09713761 1926.78448305 -911.47187953 1924.46179327 -913.86816406 1922.15045166 C-914.60035156 1921.43502197 -915.33253906 1920.71959229 -916.08691406 1919.98248291 C-916.78429687 1919.30830322 -917.48167969 1918.63412354 -918.20019531 1917.93951416 C-919.77441406 1916.16998291 -919.77441406 1916.16998291 -919.77441406 1914.16998291 C-920.76441406 1913.83998291 -921.75441406 1913.50998291 -922.77441406 1913.16998291 C-924.28222656 1911.67388916 -924.28222656 1911.67388916 -925.89941406 1909.73248291 C-929.50133831 1905.46724927 -933.25618222 1901.36493745 -937.05175781 1897.27154541 C-938.77441406 1895.16998291 -938.77441406 1895.16998291 -938.77441406 1893.16998291 C-939.43441406 1893.16998291 -940.09441406 1893.16998291 -940.77441406 1893.16998291 C-942.18879812 1891.59711607 -943.53045807 1889.95858295 -944.83691406 1888.29498291 C-947.83895774 1884.53644338 -950.88612482 1880.89124297 -954.14941406 1877.35748291 C-958.21139386 1872.8999016 -961.92930377 1868.23834881 -965.62207031 1863.47662354 C-968.55469925 1859.70086378 -971.56006358 1856.00762311 -974.64941406 1852.35748291 C-980.96203271 1844.83627746 -986.85939259 1837.00516601 -992.77441406 1829.16998291 C-993.5367334 1828.16378906 -993.5367334 1828.16378906 -994.31445312 1827.13726807 C-1006.20791529 1811.43557355 -1017.73244156 1795.4823674 -1028.77441406 1779.16998291 C-1029.18755859 1778.56122314 -1029.60070313 1777.95246338 -1030.02636719 1777.32525635 C-1036.64042224 1767.56140171 -1042.95803477 1757.62087838 -1049.22460938 1747.63140869 C-1050.78189783 1745.15809706 -1052.35052124 1742.69234906 -1053.92285156 1740.22857666 C-1059.09635448 1732.11162671 -1064.12479369 1723.96899546 -1068.84082031 1715.57623291 C-1072.36428322 1709.36924372 -1076.08280987 1703.27794236 -1079.77441406 1697.16998291 C-1081.78210945 1693.84118608 -1083.78147005 1690.50762839 -1085.77441406 1687.16998291 C-1086.31582031 1686.27408447 -1086.85722656 1685.37818604 -1087.41503906 1684.45513916 C-1091.38309714 1677.7970237 -1094.95231496 1670.99253181 -1098.36816406 1664.04107666 C-1100.17145081 1660.37175994 -1102.01306162 1656.72352892 -1103.86816406 1653.08013916 C-1112.72330279 1635.63700423 -1120.9876576 1617.96928595 -1128.92211914 1600.08947754 C-1129.72157274 1598.2889894 -1130.52424716 1596.48993235 -1131.32714844 1594.690979 C-1138.20696414 1579.21598634 -1144.46111919 1563.51798023 -1150.58691406 1547.73248291 C-1150.94372253 1546.81639252 -1151.30053101 1545.90030212 -1151.66815186 1544.95645142 C-1156.47700921 1532.58413369 -1160.91135425 1520.13144775 -1165.01419067 1507.50753784 C-1165.70261921 1505.39073963 -1166.39759423 1503.27628164 -1167.09643555 1501.16290283 C-1195.11943169 1416.22551574 -1213.56984538 1328.74536223 -1222.77441406 1223.16998291 C-1222.92305908 1221.21052734 -1222.92305908 1221.21052734 -1223.07470703 1219.21148682 C-1225.45392293 1186.93359153 -1226.18794868 1154.5293091 -1225.77441406 1122.16998291 C-1225.7658136 1121.47121033 -1225.75721313 1120.77243774 -1225.74835205 1120.05249023 C-1224.69849006 1039.00815493 -1215.32559108 957.41157149 -1190.75097656 855.09967041 C-1189.92946425 851.80414216 -1189.12778177 848.50426863 -1188.33691406 845.20123291 C-1185.62479878 833.93235597 -1182.38148306 822.86665347 -1178.9140625 811.8081665 C-1178.07756233 809.13774545 -1177.24484956 806.46631608 -1176.41601562 803.79351807 C-1170.6164492 785.09890846 -1164.81942649 766.44053383 -1157.77441406 748.16998291 C-1157.52135498 747.51237976 -1157.2682959 746.85477661 -1157.00756836 746.17724609 C-1151.57822697 732.07117712 -1146.10155236 717.98323302 -1140.51269531 703.93951416 C-1140.04903564 702.77395996 -1139.58537598 701.60840576 -1139.10766602 700.40753174 C-1137.39009486 696.23673682 -1135.49612595 692.16416166 -1133.57519531 688.08404541 C-1132.14671535 685.01679745 -1130.78788693 681.92293291 -1129.44238281 678.81842041 C-1122.31670876 662.3804212 -1114.67258517 646.24659911 -1106.77441406 630.16998291 C-1106.3709375 629.34643311 -1105.96746094 628.5228833 -1105.55175781 627.67437744 C-1093.922213 603.98078913 -1081.28947772 580.83670068 -1067.77441406 558.16998291 C-1067.1946582 557.19512939 -1066.61490234 556.22027588 -1066.01757812 555.21588135 C-1051.53416065 530.8774591 -1051.53416065 530.8774591 -1043.77441406 519.16998291 C-1043.26056152 518.39235596 -1042.74670898 517.614729 -1042.21728516 516.8135376 C-1030.43160696 498.99555477 -1018.37023621 481.42507469 -1005.77441406 464.16998291 C-1005.19224121 463.37092529 -1004.61006836 462.57186768 -1004.01025391 461.74859619 C-996.45881721 451.39452188 -988.75097297 441.19952501 -980.77441406 431.16998291 C-979.58416305 429.65130164 -978.39634087 428.13071087 -977.21191406 426.60748291 C-976.68082031 425.92685791 -976.14972656 425.24623291 -975.60253906 424.54498291 C-974.11897325 422.61761536 -972.65419954 420.67918486 -971.19628906 418.73248291 C-970.74455322 418.13379395 -970.29281738 417.53510498 -969.82739258 416.91827393 C-968.92938337 415.72740422 -968.03647801 414.53266555 -967.14916992 413.33380127 C-966.07128803 411.90902464 -964.9278652 410.53430263 -963.77441406 409.16998291 C-963.11441406 409.16998291 -962.45441406 409.16998291 -961.77441406 409.16998291 C-961.50628906 408.59763916 -961.23816406 408.02529541 -960.96191406 407.43560791 C-959.7330877 405.09113657 -958.3491923 403.04593353 -956.77441406 400.91998291 C-956.00097656 399.86037354 -956.00097656 399.86037354 -955.21191406 398.77935791 C-954.73753906 398.24826416 -954.26316406 397.71717041 -953.77441406 397.16998291 C-953.11441406 397.16998291 -952.45441406 397.16998291 -951.77441406 397.16998291 C-951.54109375 396.61826416 -951.30777344 396.06654541 -951.06738281 395.49810791 C-949.43422122 392.55743024 -947.38102199 390.3792104 -945.08691406 387.91998291 C-942.08961791 384.6818278 -939.10386797 381.44069739 -936.21191406 378.10748291 C-926.02927028 366.40928284 -915.6492594 354.78109652 -904.51660156 343.97467041 C-902.58895058 342.08549789 -902.58895058 342.08549789 -900.77441406 339.16998291 C-900.11441406 339.16998291 -899.45441406 339.16998291 -898.77441406 339.16998291 C-898.77441406 338.50998291 -898.77441406 337.84998291 -898.77441406 337.16998291 C-898.11441406 337.16998291 -897.45441406 337.16998291 -896.77441406 337.16998291 C-896.44441406 336.17998291 -896.11441406 335.18998291 -895.77441406 334.16998291 C-895.11441406 334.16998291 -894.45441406 334.16998291 -893.77441406 334.16998291 C-893.44441406 333.17998291 -893.11441406 332.18998291 -892.77441406 331.16998291 C-892.11441406 331.16998291 -891.45441406 331.16998291 -890.77441406 331.16998291 C-890.77441406 330.50998291 -890.77441406 329.84998291 -890.77441406 329.16998291 C-890.11441406 329.16998291 -889.45441406 329.16998291 -888.77441406 329.16998291 C-888.44441406 328.17998291 -888.11441406 327.18998291 -887.77441406 326.16998291 C-887.11441406 326.16998291 -886.45441406 326.16998291 -885.77441406 326.16998291 C-885.50628906 325.53060791 -885.23816406 324.89123291 -884.96191406 324.23248291 C-883.77441406 322.16998291 -883.77441406 322.16998291 -880.77441406 321.16998291 C-880.77441406 320.50998291 -880.77441406 319.84998291 -880.77441406 319.16998291 C-879.41113281 317.83013916 -879.41113281 317.83013916 -877.46191406 316.23248291 C-873.88638072 313.20119004 -870.56610781 310.00758591 -867.27441406 306.66998291 C-863.63671561 302.98711487 -859.92843726 299.46275423 -855.98925781 296.10357666 C-853.66096366 294.07093891 -851.40264673 291.97582888 -849.14428711 289.86627197 C-843.72842076 284.80800527 -838.21151027 279.98399248 -832.42285156 275.34967041 C-828.73825087 272.31721144 -825.25367668 269.08257272 -821.77050781 265.82232666 C-819.77441406 264.16998291 -819.77441406 264.16998291 -817.77441406 264.16998291 C-817.77441406 263.50998291 -817.77441406 262.84998291 -817.77441406 262.16998291 C-815.89550781 260.42779541 -815.89550781 260.42779541 -813.21191406 258.29498291 C-812.21933594 257.50092041 -811.22675781 256.70685791 -810.20410156 255.88873291 C-809.6572168 255.45560791 -809.11033203 255.02248291 -808.546875 254.57623291 C-806.63981206 253.06319124 -804.7416725 251.53943662 -802.84472656 250.01373291 C-799.16274098 247.05546488 -795.47824545 244.10087121 -791.77441406 241.16998291 C-790.62779297 240.25345947 -790.62779297 240.25345947 -789.45800781 239.31842041 C-787.77441406 238.16998291 -787.77441406 238.16998291 -785.77441406 238.16998291 C-785.77441406 237.50998291 -785.77441406 236.84998291 -785.77441406 236.16998291 C-783.96582031 234.68170166 -783.96582031 234.68170166 -781.33691406 232.85748291 C-777.12980028 229.87923272 -773.0074899 226.83085315 -768.93457031 223.67169189 C-759.55777965 216.40009551 -749.91397853 209.5601118 -740.15185547 202.81768799 C-737.74613938 201.15038691 -735.35169739 199.4677746 -732.95800781 197.78326416 C-727.11425456 193.69076843 -721.20634637 189.69579922 -715.27441406 185.73248291 C-714.69537323 185.34558289 -714.1163324 184.95868286 -713.51974487 184.56005859 C-700.81249304 176.08653811 -687.84613309 168.06971715 -674.77441406 160.16998291 C-672.99572865 159.08931889 -671.2170807 158.00859319 -669.43847656 156.92779541 C-645.43181836 142.3874704 -620.98332789 128.52178924 -595.77441406 116.16998291 C-595.1347168 115.82838135 -594.49501953 115.48677979 -593.8359375 115.13482666 C-589.89194995 113.05439722 -586.34053966 111.7834033 -581.95898438 110.80133057 C-577.27800401 109.44851259 -572.99240048 107.030882 -568.64941406 104.85748291 C-544.55626619 93.06641791 -519.75374193 82.91331268 -494.77441406 73.16998291 C-493.78973145 72.78423096 -492.80504883 72.398479 -491.79052734 72.0010376 C-411.39714961 40.66434256 -326.62700506 19.19076754 -206.83691406 3.41998291 C-205.9160199 3.31875122 -204.99512573 3.21751953 -204.04632568 3.11322021 C-180.31390023 0.53035288 -156.56808555 -1.11321264 -132.71191406 -1.95501709 C-131.55275482 -1.99704254 -130.39359558 -2.03906799 -129.1993103 -2.08236694 C-86.12571208 -3.62208876 -42.98808898 -3.31387013 0 0 Z M-305.05786133 109.26739502 C-310.50379887 110.56838726 -315.83835347 111.44644683 -321.40722656 112.06060791 C-330.28045855 113.06764953 -338.73254676 115.20721535 -347.33691406 117.54498291 C-348.54971542 117.86961517 -348.54971542 117.86961517 -349.78701782 118.20080566 C-390.51269358 129.10815242 -430.75301967 142.18661298 -469.77441406 158.16998291 C-470.39296265 158.42263916 -471.01151123 158.67529541 -471.64880371 158.93560791 C-490.25124999 166.5368362 -508.60942036 174.56727913 -526.77441406 183.16998291 C-527.8657666 183.68480225 -528.95711914 184.19962158 -530.08154297 184.7300415 C-541.38118548 190.06823399 -552.61067844 195.47310458 -563.58691406 201.45123291 C-566.55763303 203.05309118 -569.55542771 204.56219067 -572.58691406 206.04498291 C-608.21661131 223.76557308 -641.84715217 245.92851056 -674.77441406 268.16998291 C-675.72912598 268.81338623 -676.68383789 269.45678955 -677.66748047 270.11968994 C-680.2480314 271.86090175 -682.82479254 273.6075185 -685.39941406 275.35748291 C-686.12620361 275.84942139 -686.85299316 276.34135986 -687.60180664 276.84820557 C-692.05949558 279.89718761 -696.34166285 283.12047509 -700.58691406 286.45831299 C-703.83712363 289.00152942 -707.15060069 291.45724889 -710.46191406 293.91998291 C-722.51801071 302.92898115 -734.25606991 312.29874363 -745.85400391 321.88970947 C-747.38591349 323.15638606 -748.91822913 324.4225717 -750.45092773 325.68829346 C-751.97696928 326.94879704 -753.50190772 328.21063756 -755.02563477 329.47393799 C-755.72648193 330.05296875 -756.4273291 330.63199951 -757.14941406 331.22857666 C-757.77589844 331.74734375 -758.40238281 332.26611084 -759.04785156 332.80059814 C-760.56379184 334.00293256 -762.16451328 335.09671572 -763.77441406 336.16998291 C-763.77441406 336.82998291 -763.77441406 337.48998291 -763.77441406 338.16998291 C-764.35191406 338.43810791 -764.92941406 338.70623291 -765.52441406 338.98248291 C-767.82991449 340.1992748 -769.79497599 341.4733217 -771.77441406 343.16998291 C-771.77441406 343.82998291 -771.77441406 344.48998291 -771.77441406 345.16998291 C-772.30808594 345.38525635 -772.84175781 345.60052979 -773.39160156 345.82232666 C-776.65099014 347.66575135 -779.20253177 350.17011664 -781.89941406 352.73248291 C-787.5345492 358.05005048 -787.5345492 358.05005048 -789.77441406 359.16998291 C-789.77441406 359.82998291 -789.77441406 360.48998291 -789.77441406 361.16998291 C-790.32871094 361.39556885 -790.88300781 361.62115479 -791.45410156 361.85357666 C-794.45947561 363.55864577 -796.50428409 365.74798242 -798.89941406 368.23248291 C-803.57996962 373.07276069 -803.57996962 373.07276069 -805.77441406 374.16998291 C-805.77441406 374.82998291 -805.77441406 375.48998291 -805.77441406 376.16998291 C-806.76441406 376.49998291 -807.75441406 376.82998291 -808.77441406 377.16998291 C-808.77441406 377.82998291 -808.77441406 378.48998291 -808.77441406 379.16998291 C-809.32025146 379.38984863 -809.86608887 379.60971436 -810.4284668 379.83624268 C-813.53035445 381.59975732 -815.8340412 383.98266473 -818.30957031 386.50982666 C-818.82950058 387.03258682 -819.34943085 387.55534698 -819.88511658 388.09394836 C-821.54048645 389.76047451 -823.18876491 391.43381838 -824.83691406 393.10748291 C-825.94908034 394.22968767 -827.06170585 395.35143751 -828.17480469 396.47271729 C-830.21746034 398.53168026 -832.25747824 400.59317689 -834.29418945 402.65802002 C-835.70966027 404.09160396 -837.14001825 405.51159235 -838.61206055 406.88702393 C-839.99821919 408.12847685 -839.99821919 408.12847685 -839.77441406 410.16998291 C-840.76441406 410.49998291 -841.75441406 410.82998291 -842.77441406 411.16998291 C-844.28656382 412.62339026 -844.28656382 412.62339026 -845.77441406 414.48248291 C-848.02072724 417.14424325 -850.29829548 419.75522367 -852.67675781 422.29888916 C-853.42795898 423.10362671 -853.42795898 423.10362671 -854.19433594 423.92462158 C-855.19871255 424.99702306 -856.20648509 426.066255 -857.21777344 427.13214111 C-859.93921392 429.71754222 -859.93921392 429.71754222 -860.77441406 433.16998291 C-861.43441406 433.16998291 -862.09441406 433.16998291 -862.77441406 433.16998291 C-864.1676736 434.72238632 -865.48821534 436.34028276 -866.77441406 437.98248291 C-870.93447607 443.20454449 -875.32495709 448.09803236 -879.90332031 452.95513916 C-881.98952676 454.94138181 -881.98952676 454.94138181 -881.77441406 457.16998291 C-882.43441406 457.16998291 -883.09441406 457.16998291 -883.77441406 457.16998291 C-885.43748253 459.11330921 -886.98696724 461.06755612 -888.52441406 463.10748291 C-892.74519323 468.6040821 -897.08012081 473.97784873 -901.52441406 479.29498291 C-908.72939786 487.9633076 -915.4693085 496.95442197 -922.171875 506.01373291 C-924.16028729 508.68918345 -926.18732332 511.33434902 -928.21191406 513.98248291 C-938.54122341 527.75489537 -948.16790931 542.08624866 -957.63867188 556.45904541 C-958.78360767 558.18383261 -959.94443185 559.89682229 -961.11035156 561.60748291 C-968.75862053 572.86630853 -975.77528247 584.49984305 -982.77441406 596.16998291 C-983.44706299 597.2871167 -983.44706299 597.2871167 -984.13330078 598.42681885 C-1001.51045642 627.33589887 -1017.31706133 657.21475619 -1031.63720703 687.74713135 C-1032.6253362 689.85236833 -1033.62137861 691.9535122 -1034.62207031 694.05279541 C-1042.03632172 709.72263171 -1049.19592086 725.5845895 -1055.36035156 741.79107666 C-1056.47144484 744.44603712 -1057.66339683 746.88245135 -1059.00097656 749.41998291 C-1062.95176055 757.23598226 -1065.79051906 765.51259416 -1068.77441406 773.73248291 C-1069.09944916 774.62414154 -1069.42448425 775.51580017 -1069.7593689 776.43447876 C-1097.47820851 852.66065459 -1115.6381938 931.49014945 -1129.77441406 1054.16998291 C-1129.87351074 1055.38331299 -1129.97260742 1056.59664307 -1130.07470703 1057.84674072 C-1133.67381473 1102.35914526 -1134.30150903 1147.57551964 -1131.77441406 1192.16998291 C-1131.7329425 1192.91264404 -1131.69147095 1193.65530518 -1131.64874268 1194.42047119 C-1129.32652354 1235.63280316 -1124.79672905 1276.49377464 -1117.77441406 1317.16998291 C-1117.63970703 1317.95439758 -1117.505 1318.73881226 -1117.36621094 1319.54699707 C-1109.40488017 1365.8139784 -1099.04656893 1412.02435292 -1083.99609375 1456.53424072 C-1082.62976764 1460.60045344 -1081.29859724 1464.67735906 -1079.96972656 1468.75592041 C-1075.06146159 1483.7719102 -1069.96577212 1498.69651862 -1064.39941406 1513.48248291 C-1064.15847015 1514.12254272 -1063.91752625 1514.76260254 -1063.66928101 1515.42205811 C-1062.06123315 1519.68062577 -1060.42492041 1523.92771069 -1058.77441406 1528.16998291 C-1058.53331909 1528.79112976 -1058.29222412 1529.41227661 -1058.04382324 1530.05224609 C-1055.0349958 1537.77945079 -1051.82257286 1545.36945366 -1048.296875 1552.878479 C-1046.68000859 1556.37408402 -1045.14018898 1559.89866441 -1043.62597656 1563.43951416 C-1043.36395447 1564.05182892 -1043.10193237 1564.66414368 -1042.83197021 1565.29501343 C-1042.29600047 1566.54830237 -1041.76021541 1567.80167032 -1041.22460938 1569.05511475 C-1036.74795342 1579.5110202 -1032.16241986 1589.85382386 -1026.91308594 1599.94830322 C-1025.52189637 1602.66267395 -1024.17136447 1605.39586852 -1022.82128906 1608.13092041 C-1015.80233857 1622.33689566 -1008.49493389 1636.33346437 -1000.77441406 1650.16998291 C-1000.00145996 1651.56313721 -1000.00145996 1651.56313721 -999.21289062 1652.98443604 C-993.03478478 1664.10882846 -986.69454121 1675.13217984 -980.14941406 1686.04498291 C-979.55725098 1687.04457031 -978.96508789 1688.04415771 -978.35498047 1689.07403564 C-977.79987793 1689.98999512 -977.24477539 1690.90595459 -976.67285156 1691.84967041 C-975.94074463 1693.06759277 -975.94074463 1693.06759277 -975.19384766 1694.31011963 C-973.82458848 1696.46564253 -973.82458848 1696.46564253 -970.77441406 1697.16998291 C-970.04748154 1698.81126026 -969.38940447 1700.48356392 -968.77441406 1702.16998291 C-967.8160556 1703.81988413 -966.81199438 1705.44371713 -965.77441406 1707.04498291 C-965.15566406 1708.00017822 -964.53691406 1708.95537354 -963.89941406 1709.93951416 C-957.64976645 1719.44035713 -951.33991586 1728.88335748 -944.77441406 1738.16998291 C-943.73269747 1739.66994824 -942.691033 1741.16994977 -941.64941406 1742.66998291 C-933.53356316 1754.24593989 -925.24382954 1765.68543176 -916.60473633 1776.87701416 C-913.81805899 1780.48794391 -911.06306262 1784.11671705 -908.36035156 1787.79107666 C-907.81064697 1788.53599365 -907.26094238 1789.28091064 -906.69458008 1790.04840088 C-905.64290756 1791.47714231 -904.59629976 1792.9096292 -903.55541992 1794.34625244 C-902.34242857 1795.99017218 -901.0643953 1797.58575802 -899.77441406 1799.16998291 C-899.11441406 1799.16998291 -898.45441406 1799.16998291 -897.77441406 1799.16998291 C-896.77441406 1801.16998291 -895.77441406 1803.16998291 -894.77441406 1805.16998291 C-894.11441406 1805.16998291 -893.45441406 1805.16998291 -892.77441406 1805.16998291 C-892.52949219 1805.72427979 -892.28457031 1806.27857666 -892.03222656 1806.84967041 C-890.52237614 1809.63492242 -888.68274274 1811.86490718 -886.64941406 1814.29498291 C-882.80118777 1818.91409783 -879.07062843 1823.60540547 -875.40332031 1828.36920166 C-874.59701172 1829.26058838 -874.59701172 1829.26058838 -873.77441406 1830.16998291 C-873.11441406 1830.16998291 -872.45441406 1830.16998291 -871.77441406 1830.16998291 C-871.55914063 1830.70365479 -871.34386719 1831.23732666 -871.12207031 1831.78717041 C-869.27864563 1835.04655899 -866.77428033 1837.59810061 -864.21191406 1840.29498291 C-858.89434649 1845.93011805 -858.89434649 1845.93011805 -857.77441406 1848.16998291 C-857.11441406 1848.16998291 -856.45441406 1848.16998291 -855.77441406 1848.16998291 C-855.55140625 1848.72170166 -855.32839844 1849.27342041 -855.09863281 1849.84185791 C-853.3588731 1852.90055051 -851.11676925 1854.97736411 -848.58691406 1857.41998291 C-845.42416668 1860.48099156 -842.41299824 1863.54687568 -839.54785156 1866.88775635 C-835.9731495 1870.9921209 -832.22416788 1874.88146806 -828.37988281 1878.73248291 C-827.7064534 1879.40924072 -827.03302399 1880.08599854 -826.33918762 1880.78326416 C-824.93128543 1882.19618475 -823.52206688 1883.60779482 -822.11157227 1885.01812744 C-819.94486638 1887.18704802 -817.78631754 1889.36388198 -815.62792969 1891.54107666 C-814.25406925 1892.9178664 -812.87973751 1894.29418603 -811.50488281 1895.66998291 C-810.85907761 1896.32297363 -810.2132724 1896.97596436 -809.54789734 1897.64874268 C-808.94999893 1898.24356445 -808.35210052 1898.83838623 -807.73608398 1899.45123291 C-807.21092697 1899.97781494 -806.68576996 1900.50439697 -806.1446991 1901.04693604 C-804.81188708 1902.38127675 -804.81188708 1902.38127675 -802.77441406 1902.16998291 C-802.77441406 1902.82998291 -802.77441406 1903.48998291 -802.77441406 1904.16998291 C-801.25226444 1905.72679648 -801.25226444 1905.72679648 -799.26269531 1907.33404541 C-796.40104834 1909.76710616 -793.60230577 1912.2302063 -790.87988281 1914.81842041 C-790.24010498 1915.42661621 -789.60032715 1916.03481201 -788.94116211 1916.66143799 C-787.96143433 1917.59379272 -787.96143433 1917.59379272 -786.96191406 1918.54498291 C-781.58192836 1923.6306191 -776.12937619 1928.46076827 -770.33691406 1933.07232666 C-767.61294447 1935.30216152 -765.04106221 1937.64952409 -762.46191406 1940.04498291 C-757.87513521 1944.26690435 -753.1025994 1948.12099279 -748.1730957 1951.92559814 C-743.96164518 1955.19165595 -739.91217588 1958.60136856 -735.89941406 1962.10748291 C-724.3380172 1972.14939115 -711.78858596 1980.94407582 -699.36035156 1989.86920166 C-696.27213521 1992.0874143 -693.19497987 1994.31979797 -690.12597656 1996.56451416 C-681.19225428 2003.08820904 -672.16732388 2009.32763972 -662.77441406 2015.16998291 C-661.49961009 2015.96545265 -660.22487261 2016.76102895 -658.95019531 2017.55670166 C-656.94887703 2018.80576712 -654.94716253 2020.05415288 -652.94360352 2021.29962158 C-648.75106172 2023.91185509 -644.59748833 2026.57680412 -640.46313477 2029.28009033 C-632.07688089 2034.76211391 -623.54687197 2039.924694 -614.87744141 2044.94488525 C-612.8104367 2046.14899828 -610.75387742 2047.36908803 -608.70019531 2048.59576416 C-585.56860429 2062.39244121 -561.69913352 2075.19817424 -537.30151367 2086.60992432 C-532.51438355 2088.84920077 -527.78154248 2091.17085503 -523.06738281 2093.56060791 C-515.88016491 2097.18467299 -508.54738393 2100.43702646 -501.14941406 2103.60748291 C-500.49401642 2103.88955597 -499.83861877 2104.17162903 -499.1633606 2104.46224976 C-488.10500493 2109.22042203 -477.00630725 2113.83602444 -465.77441406 2118.16998291 C-464.48545187 2118.67063595 -463.19655694 2119.1714622 -461.90771484 2119.67242432 C-419.35161464 2136.18746049 -376.10587171 2150.22841888 -331.77441406 2161.16998291 C-330.52917969 2161.48145264 -329.28394531 2161.79292236 -328.00097656 2162.11383057 C-303.78238307 2168.1574115 -279.36224172 2172.89362477 -254.77441406 2177.16998291 C-254.03856079 2177.29824463 -253.30270752 2177.42650635 -252.54455566 2177.55865479 C-221.43396158 2182.95632933 -190.00599427 2186.56588472 -158.52441406 2188.91998291 C-157.34661377 2189.00859589 -157.34661377 2189.00859589 -156.14501953 2189.09899902 C-150.69070788 2189.50260081 -145.23437933 2189.85244639 -139.77441406 2190.16998291 C-138.96366425 2190.21837311 -138.15291443 2190.26676331 -137.31759644 2190.31661987 C-118.17046143 2191.41947969 -99.00861186 2191.372611 -79.83691406 2191.35748291 C-78.9929369 2191.35706875 -78.14895973 2191.35665459 -77.2794075 2191.35622787 C-51.73355457 2191.34053597 -26.24961251 2191.2727016 -0.77441406 2189.16998291 C0.1539325 2189.09457275 1.08227905 2189.0191626 2.03875732 2188.94146729 C97.11701245 2181.15024322 191.44070225 2161.90830255 303.05126953 2120.39361572 C305.89407637 2119.29777294 308.74044153 2118.21205088 311.58886719 2117.13092041 C318.9943536 2114.30787207 326.25250355 2111.33449141 333.41699219 2107.93560791 C337.42997817 2106.04949341 341.50151169 2104.30283717 345.56982422 2102.5401001 C359.8466908 2096.34160286 373.87214165 2089.68606165 387.84130859 2082.83062744 C390.93882357 2081.31069548 394.04086035 2079.80039551 397.14355469 2078.29107666 C409.55734545 2072.2106515 421.58496906 2065.56052147 433.57128906 2058.6807251 C436.7173386 2056.89009278 439.88856179 2055.14926897 443.06542969 2053.41412354 C458.38934492 2045.03169251 473.26030937 2035.83385091 487.90136719 2026.31451416 C491.69182726 2023.86919973 495.51871381 2021.48709711 499.35058594 2019.10748291 C528.00757536 2001.25124211 555.90966369 1981.15304042 581.53125 1959.14630127 C585.39158081 1955.84014619 589.34327535 1952.67096806 593.35058594 1949.54498291 C599.99692121 1944.35326477 599.99692121 1944.35326477 606.60058594 1939.10748291 C607.49519531 1938.39463135 608.38980469 1937.68177979 609.31152344 1936.94732666 C609.94316406 1936.36080322 610.57480469 1935.77427979 611.22558594 1935.16998291 C611.22558594 1934.50998291 611.22558594 1933.84998291 611.22558594 1933.16998291 C612.06089844 1932.79873291 612.06089844 1932.79873291 612.91308594 1932.41998291 C615.64969507 1930.94073473 617.90209463 1929.23530852 620.22558594 1927.16998291 C620.22558594 1926.50998291 620.22558594 1925.84998291 620.22558594 1925.16998291 C620.82016602 1924.89758789 621.41474609 1924.62519287 622.02734375 1924.34454346 C624.1699915 1923.19968803 625.6456523 1922.04353593 627.39746094 1920.37701416 C628.27144531 1919.55427002 628.27144531 1919.55427002 629.16308594 1918.71490479 C629.76121094 1918.14320557 630.35933594 1917.57150635 630.97558594 1916.98248291 C634.56134361 1913.5831529 638.15039449 1910.21437812 641.90234375 1906.99810791 C646.48460975 1902.99885431 650.79806053 1898.75924307 655.10058594 1894.46295166 C655.91052002 1893.65634598 656.7204541 1892.8497403 657.55493164 1892.01869202 C659.25032815 1890.32832378 660.94440363 1888.63662963 662.63720703 1886.94366455 C665.24068787 1884.3423938 667.8520929 1881.74925159 670.46386719 1879.15631104 C672.11409484 1877.50901336 673.76385172 1875.86124392 675.41308594 1874.21295166 C676.19731934 1873.43590378 676.98155273 1872.6588559 677.78955078 1871.85826111 C678.50449707 1871.14023819 679.21944336 1870.42221527 679.95605469 1869.68243408 C680.58922607 1869.05068771 681.22239746 1868.41894135 681.87475586 1867.76805115 C683.44077174 1866.26416264 683.44077174 1866.26416264 683.22558594 1864.16998291 C684.21558594 1863.83998291 685.20558594 1863.50998291 686.22558594 1863.16998291 C686.22558594 1862.50998291 686.22558594 1861.84998291 686.22558594 1861.16998291 C686.88558594 1861.16998291 687.54558594 1861.16998291 688.22558594 1861.16998291 C689.62621321 1859.8240272 689.62621321 1859.8240272 691.10058594 1857.98248291 C693.45680173 1855.19604512 695.85604721 1852.47327914 698.35449219 1849.81451416 C698.89928223 1849.2340332 699.44407227 1848.65355225 700.00537109 1848.05548096 C701.10442141 1846.88828629 702.20693165 1845.72433924 703.31298828 1844.56378174 C706.25677195 1841.82860789 706.25677195 1841.82860789 707.22558594 1838.16998291 C707.88558594 1838.16998291 708.54558594 1838.16998291 709.22558594 1838.16998291 C710.7899138 1836.47724007 712.27887166 1834.71428439 713.72558594 1832.91998291 C714.51964844 1831.94545166 715.31371094 1830.97092041 716.13183594 1829.96685791 C717.81306628 1827.72103529 719.10694492 1825.72340261 720.22558594 1823.16998291 C720.88558594 1823.16998291 721.54558594 1823.16998291 722.22558594 1823.16998291 C723.72436096 1821.51514683 725.15047067 1819.79407779 726.53808594 1818.04498291 C727.33730469 1817.04338135 728.13652344 1816.04177979 728.95996094 1815.00982666 C729.70761719 1814.07267822 730.45527344 1813.13552979 731.22558594 1812.16998291 C732.24201424 1810.97871029 733.26169965 1809.79018665 734.28808594 1808.60748291 C736.43300065 1806.42799677 736.43300065 1806.42799677 736.22558594 1804.16998291 C736.88558594 1804.16998291 737.54558594 1804.16998291 738.22558594 1804.16998291 C739.81244753 1802.44484139 739.81244753 1802.44484139 741.43261719 1800.20513916 C742.36775146 1798.96788086 742.36775146 1798.96788086 743.32177734 1797.70562744 C743.95003418 1796.86886475 744.57829102 1796.03210205 745.22558594 1795.16998291 C746.33015124 1793.7492801 747.43809268 1792.3311941 748.54980469 1790.91607666 C764.70968873 1770.22914133 780.382643 1749.24500617 794.81445312 1727.30865479 C796.61809497 1724.57510762 798.44082599 1721.85460831 800.2644043 1719.13433838 C803.65995076 1714.06412429 807.03195198 1708.97842108 810.35058594 1703.85748291 C810.91003906 1702.9951001 811.46949219 1702.13271729 812.04589844 1701.24420166 C813.3903776 1699.27793667 813.3903776 1699.27793667 813.22558594 1697.16998291 C814.21558594 1696.83998291 815.20558594 1696.50998291 816.22558594 1696.16998291 C817.85017219 1694.03543343 817.85017219 1694.03543343 819.37792969 1691.34185791 C819.9832251 1690.3255127 820.58852051 1689.30916748 821.2121582 1688.26202393 C821.85596436 1687.15915039 822.49977051 1686.05627686 823.16308594 1684.91998291 C823.83331787 1683.78552734 824.5035498 1682.65107178 825.1940918 1681.48223877 C827.21784085 1678.0524692 829.22269601 1674.61197508 831.22558594 1671.16998291 C831.76989258 1670.23879639 832.31419922 1669.30760986 832.875 1668.34820557 C840.79556395 1654.77191977 848.26911608 1640.96077397 855.66259766 1627.09185791 C857.01728783 1624.55937868 858.38464755 1622.03461761 859.76074219 1619.51373291 C865.39656372 1609.13470114 870.27580871 1598.46648537 875.09277344 1587.68658447 C876.64128539 1584.24648508 878.2413543 1580.831982 879.85058594 1577.41998291 C889.48204257 1556.84881558 898.32013558 1535.93065918 906.47558594 1514.73248291 C906.79440735 1513.90459259 907.11322876 1513.07670227 907.44171143 1512.22372437 C918.02607629 1484.65305003 927.12435465 1456.56682086 935.22558594 1428.16998291 C935.42261108 1427.48134155 935.61963623 1426.7927002 935.82263184 1426.08319092 C955.57211646 1356.91476092 967.11365478 1285.98458052 972.91308594 1214.35748291 C973.0043576 1213.25068176 973.0043576 1213.25068176 973.09747314 1212.121521 C974.99987764 1188.79923288 975.39290153 1165.47397159 975.35595703 1142.08673096 C975.35026564 1138.46253565 975.35366044 1134.83841382 975.35938168 1131.214221 C975.39393531 1105.64039702 974.62459722 1080.21978997 972.41308594 1054.73248291 C972.32499664 1053.70272339 972.23690735 1052.67296387 972.14614868 1051.61199951 C965.19737513 970.64530349 949.79334606 890.82384208 904.72558594 755.98248291 C904.43603027 755.20687012 904.14647461 754.43125732 903.84814453 753.63214111 C902.02528604 748.8813889 899.85565964 744.39581562 897.54638672 739.86407471 C895.11129674 734.89712131 893.03641727 729.77598095 890.91308594 724.66998291 C884.9805639 710.53979405 879.01640813 696.48894378 872.05371094 682.83013916 C870.33850617 679.43803213 868.73958548 675.99738154 867.14257812 672.54840088 C862.16963448 661.8396438 856.60160878 651.52459314 850.88623047 641.19732666 C848.48820617 636.82574458 846.14696256 632.42439354 843.80053711 628.02496338 C838.90647602 618.86013834 833.9889754 609.80259365 828.39990234 601.04156494 C826.3057756 597.70402324 824.28319898 594.3228875 822.24584961 590.95050049 C806.88437575 565.54994435 790.45720074 540.86124895 772.66064453 517.09576416 C770.73781476 514.5154169 768.85554893 511.90666803 766.97558594 509.29498291 C763.34161747 504.28474553 759.57890935 499.37812306 755.78808594 494.48638916 C754.10719115 492.31714351 752.44093147 490.13801346 750.78808594 487.94732666 C745.46905111 480.91795346 739.88246375 474.18450578 734.11230469 467.52154541 C729.24580819 461.8951107 724.53637644 456.13529784 719.96386719 450.26763916 C719.24585937 449.3485376 718.52785156 448.42943604 717.78808594 447.48248291 C717.15 446.65361572 716.51191406 445.82474854 715.85449219 444.97076416 C715.31695313 444.37650635 714.77941406 443.78224854 714.22558594 443.16998291 C713.56558594 443.16998291 712.90558594 443.16998291 712.22558594 443.16998291 C711.99871094 442.62470947 711.77183594 442.07943604 711.53808594 441.51763916 C709.82545043 438.45426434 707.62205549 436.16766477 705.22558594 433.60748291 C702.65114335 430.84968613 700.31922131 428.31043597 698.22558594 425.16998291 C697.56558594 425.16998291 696.90558594 425.16998291 696.22558594 425.16998291 C695.97164062 424.58732666 695.71769531 424.00467041 695.45605469 423.40435791 C694.09238261 420.92810258 692.5833339 419.36477665 690.53808594 417.41998291 C687.88471811 414.8889146 685.42776459 412.27197942 683.04003906 409.4932251 C679.45023653 405.37659744 675.68888296 401.47206467 671.83105469 397.60748291 C671.15762527 396.9307251 670.48419586 396.25396729 669.7903595 395.55670166 C668.38245731 394.14378107 666.97323876 392.732171 665.56274414 391.32183838 C663.39603826 389.15291781 661.23748942 386.97608384 659.07910156 384.79888916 C657.70524112 383.42209942 656.33090938 382.04577979 654.95605469 380.66998291 C654.31024948 380.01699219 653.66444427 379.36400146 652.99906921 378.69122314 C652.40117081 378.09640137 651.8032724 377.50157959 651.18725586 376.88873291 C650.39952034 376.09885986 650.39952034 376.09885986 649.59587097 375.29302979 C648.26305895 373.95868907 648.26305895 373.95868907 646.22558594 374.16998291 C645.89558594 373.17998291 645.56558594 372.18998291 645.22558594 371.16998291 C643.8730692 369.75989955 643.8730692 369.75989955 642.10058594 368.35748291 C637.84782394 364.7572205 633.78424324 360.98515083 629.72558594 357.16998291 C623.61080889 351.43738352 623.61080889 351.43738352 617.41308594 345.79498291 C616.53716797 345.00994385 616.53716797 345.00994385 615.64355469 344.20904541 C614.24970048 342.97295803 614.24970048 342.97295803 612.22558594 343.16998291 C612.22558594 342.50998291 612.22558594 341.84998291 612.22558594 341.16998291 C610.49166642 339.56364276 608.68749494 338.03245421 606.85058594 336.54498291 C605.85285156 335.72771729 604.85511719 334.91045166 603.82714844 334.06842041 C601.49308709 331.97349322 601.49308709 331.97349322 599.22558594 332.16998291 C599.22558594 331.50998291 599.22558594 330.84998291 599.22558594 330.16998291 C597.17765744 328.42500241 595.11985149 326.78923571 592.97558594 325.16998291 C591.67883101 324.17282025 590.38327757 323.17409337 589.08886719 322.17388916 C588.43611816 321.67002686 587.78336914 321.16616455 587.11083984 320.64703369 C584.40691835 318.52857668 581.78727438 316.32416686 579.16308594 314.10748291 C572.99411388 308.93271771 566.6463254 304.02425419 560.22558594 299.16998291 C559.61730957 298.70865967 559.0090332 298.24733643 558.38232422 297.77203369 C536.91558998 281.50535003 514.95840551 266.01510408 492.27441406 251.49078369 C490.28536493 250.20852013 488.30853686 248.9095024 486.33496094 247.60357666 C468.21341076 235.65192409 449.38633415 224.73518946 430.33935547 214.33209229 C428.11523137 213.10931211 425.90194897 211.86853006 423.69042969 210.62310791 C414.74723923 205.59262273 405.7260066 200.82477716 396.51513672 196.30523682 C393.96999617 195.04325094 391.43931412 193.75475356 388.90917969 192.46295166 C377.86343972 186.84228621 366.72440411 181.48248177 355.41308594 176.41998291 C354.28298096 175.91378418 353.15287598 175.40758545 351.98852539 174.88604736 C298.33480437 151.06344156 242.98953201 131.51865796 186.22558594 116.54498291 C185.03521729 116.22618164 183.84484863 115.90738037 182.6184082 115.57891846 C175.86601811 113.84847835 169.18942995 112.71445197 162.27252197 111.93809509 C155.05595511 111.09926605 148.04905652 109.49702613 140.97558594 107.85748291 C138.15817649 107.22130037 135.3387862 106.59430824 132.51855469 105.97076416 C131.46558449 105.73794739 131.46558449 105.73794739 130.39134216 105.50042725 C119.07059257 103.01836545 107.65978992 101.04936602 96.22558594 99.16998291 C94.99420898 98.9666333 93.76283203 98.76328369 92.49414062 98.55377197 C61.24757263 93.45861805 29.80511911 89.67893276 -1.77441406 87.41998291 C-2.59046112 87.36090759 -3.40650818 87.30183228 -4.24728394 87.2409668 C-28.68926266 85.50284022 -53.15083585 84.95929251 -77.64941406 84.98248291 C-78.94733887 84.98341949 -80.24526367 84.98435608 -81.58251953 84.98532104 C-156.31267723 85.08019941 -232.26640188 91.56750772 -305.05786133 109.26739502 Z " fill="#FFFFFF" transform="translate(1582.7744140625,379.83001708984375)"/>
<path d="M0 0 C5.50576687 -0.00213697 11.01153126 -0.00537448 16.51729685 -0.00967824 C82.98536342 -0.0605199 149.47516614 0.20455047 215.92539245 1.8865329 C219.01185273 1.96423424 222.09835275 2.03301746 225.18515807 2.09551728 C285.59357065 3.32565877 330.41109828 17.89095702 379.49594909 53.86651337 C381.0660799 55.01648094 382.64696199 56.15173154 384.22885925 57.28545868 C390.80982038 62.01169973 397.24601114 66.92011883 403.63706237 71.89873993 C405.17264652 73.09287121 406.71435717 74.27911093 408.256203 75.46514618 C409.16885925 76.17670868 410.0815155 76.88827118 411.021828 77.62139618 C411.83264831 78.25045868 412.64346862 78.87952118 413.47885925 79.52764618 C414.04991393 80.05358368 414.62096862 80.57952118 415.209328 81.12139618 C415.209328 81.78139618 415.209328 82.44139618 415.209328 83.12139618 C416.03690612 83.47137665 416.03690612 83.47137665 416.881203 83.82842743 C419.82188067 85.46158903 422.00010051 87.51478825 424.459328 89.80889618 C430.08461577 95.00723136 435.73254661 100.14132556 441.709328 104.93389618 C442.534328 105.65577118 443.359328 106.37764618 444.209328 107.12139618 C444.209328 107.78139618 444.209328 108.44139618 444.209328 109.12139618 C445.03690612 109.4559079 445.03690612 109.4559079 445.881203 109.79717743 C448.93989559 111.53693715 451.0167092 113.779041 453.459328 116.30889618 C457.30263749 120.24464539 461.24101621 123.97757102 465.41635925 127.55889618 C468.16966432 129.95829058 470.72078808 132.44621578 473.209328 135.12139618 C473.209328 135.78139618 473.209328 136.44139618 473.209328 137.12139618 C473.78473327 137.35914765 474.36013854 137.59689911 474.95298034 137.84185517 C477.69139205 139.3947675 479.26225289 141.20524128 481.3108905 143.59405243 C486.18554894 149.14668979 491.33588213 154.36129219 496.584328 159.55889618 C497.91657409 160.8843747 497.91657409 160.8843747 499.27573425 162.23663056 C500.90786647 163.86012063 502.54103311 165.48257204 504.17563659 167.10357392 C504.84675475 167.76945527 505.51787292 168.43533661 506.209328 169.12139618 C506.79407897 169.66417206 507.37882995 170.20694794 507.98130065 170.76617157 C509.209328 172.12139618 509.209328 172.12139618 509.209328 174.12139618 C509.869328 174.12139618 510.529328 174.12139618 511.209328 174.12139618 C512.76010925 175.69561493 512.76010925 175.69561493 514.521828 177.80889618 C516.64577484 180.31941912 518.76434143 182.7296304 521.146828 184.99639618 C523.209328 187.12139618 523.209328 187.12139618 523.209328 189.12139618 C523.869328 189.12139618 524.529328 189.12139618 525.209328 189.12139618 C526.5140155 190.41436493 526.5140155 190.41436493 528.084328 192.30889618 C531.33542846 196.14370154 534.71213304 199.82767607 538.146828 203.49639618 C542.51592116 208.18304419 546.60101805 213.00427176 550.54917175 218.05498993 C552.59730499 220.60431343 554.86896868 222.83954585 557.209328 225.12139618 C558.65945289 226.6721864 560.09599847 228.23573927 561.521828 229.80889618 C562.21921081 230.57588837 562.91659362 231.34288056 563.63510925 232.13311493 C565.209328 234.12139618 565.209328 234.12139618 565.209328 236.12139618 C565.869328 236.12139618 566.529328 236.12139618 567.209328 236.12139618 C568.62371205 237.69426302 569.96537201 239.33279614 571.271828 240.99639618 C574.31958665 244.80975181 577.41433141 248.51948427 580.709328 252.12139618 C594.209328 266.97853904 594.209328 266.97853904 594.209328 270.12139618 C594.869328 270.12139618 595.529328 270.12139618 596.209328 270.12139618 C597.91106505 272.12810404 599.50482725 274.14627787 601.084328 276.24639618 C604.98889424 281.33479368 608.99686467 286.28488965 613.209328 291.12139618 C617.60571374 296.18725723 621.8123623 301.36185876 625.92417175 306.66045868 C629.6015333 311.38550159 633.38899188 316.0114481 637.209328 320.62139618 C641.94432902 326.34018533 646.60485933 332.10543153 651.17075378 337.96001923 C653.9471034 341.51953293 656.75243802 345.0531165 659.58335143 348.56939423 C664.89036961 355.16173284 670.08428682 361.83004856 675.20615417 368.56719697 C678.63593196 373.07589696 682.10276996 377.55282433 685.59726745 382.0115329 C691.17001342 389.12583756 696.58271972 396.31229533 701.787453 403.69952118 C704.36200446 407.35277179 706.99938207 410.95825807 709.646828 414.55889618 C710.10468688 415.18248017 710.56254577 415.80606415 711.03427917 416.44854462 C713.33783777 419.58361788 715.64747435 422.71407599 717.96323425 425.84014618 C723.31604241 433.08111871 728.52781067 440.39890907 733.59409362 447.84380829 C734.23894714 448.79139008 734.23894714 448.79139008 734.896828 449.75811493 C735.49624206 450.64055878 735.49624206 450.64055878 736.1077655 451.54082978 C737.03757862 452.87496323 738.02389621 454.16945054 739.021828 455.45342743 C740.209328 457.12139618 740.209328 457.12139618 740.209328 459.12139618 C741.199328 459.45139618 742.189328 459.78139618 743.209328 460.12139618 C743.209328 460.78139618 743.209328 461.44139618 743.209328 462.12139618 C733.82962641 462.26075187 724.45028411 462.36719609 715.06977111 462.43226922 C710.71341015 462.46351006 706.35776025 462.50584798 702.00180846 462.5740329 C697.79367928 462.63948759 693.58623161 462.67515668 689.37763244 462.69065964 C687.7764695 462.70169955 686.17534159 462.72325855 684.57447082 462.75577652 C669.40296545 463.05154125 669.40296545 463.05154125 663.71225768 457.68185151 C663.21629089 457.16690125 662.72032409 456.65195099 662.209328 456.12139618 C661.0497168 455.19582028 659.88341449 454.27853995 658.709328 453.37139618 C657.884328 452.62889618 657.059328 451.88639618 656.209328 451.12139618 C656.209328 450.46139618 656.209328 449.80139618 656.209328 449.12139618 C655.64729675 448.88807587 655.0852655 448.65475556 654.506203 448.41436493 C651.64198658 446.80202542 649.73680779 444.80203998 647.459328 442.43389618 C643.81559921 438.71002673 640.09528568 435.216613 636.1390155 431.83233368 C633.36962638 429.37688341 630.80897676 426.7304328 628.21323425 424.09405243 C625.62686648 421.54801789 622.8939752 419.20118062 620.14292175 416.83623993 C618.25438202 415.16135319 616.47777152 413.42192032 614.709328 411.62139618 C610.35708881 407.20007384 605.66576676 403.19152321 600.92417175 399.19561493 C599.82782409 398.26168915 599.82782409 398.26168915 598.709328 397.30889618 C598.0390155 396.74557587 597.368703 396.18225556 596.678078 395.60186493 C595.209328 394.12139618 595.209328 394.12139618 595.209328 392.12139618 C594.62280456 391.86358368 594.03628112 391.60577118 593.43198425 391.34014618 C591.03595677 390.02633147 589.52021247 388.59955608 587.646828 386.62139618 C585.53408577 384.40042885 583.79319174 382.84397201 581.209328 381.12139618 C581.209328 380.46139618 581.209328 379.80139618 581.209328 379.12139618 C580.62409362 378.86487275 580.03885925 378.60834931 579.4358905 378.34405243 C577.01698191 377.01577456 575.47733927 375.55614817 573.584328 373.55889618 C571.16410841 370.98124229 571.16410841 370.98124229 568.209328 369.12139618 C568.209328 368.46139618 568.209328 367.80139618 568.209328 367.12139618 C567.63263366 366.86688691 567.05593932 366.61237763 566.4617694 366.35015595 C563.96277382 364.98689508 562.21914264 363.43445799 560.1702655 361.46123993 C559.05264831 360.39486298 559.05264831 360.39486298 557.912453 359.30694306 C556.76003112 358.19415986 556.76003112 358.19415986 555.584328 357.05889618 C554.05243377 355.58680182 552.51867052 354.11664916 550.9827655 352.64873993 C550.30649108 351.99639374 549.63021667 351.34404755 548.93344909 350.67193329 C547.27788889 349.04502377 547.27788889 349.04502377 545.209328 348.12139618 C545.209328 347.46139618 545.209328 346.80139618 545.209328 346.12139618 C544.62280456 345.86358368 544.03628112 345.60577118 543.43198425 345.34014618 C541.03595677 344.02633147 539.52021247 342.59955608 537.646828 340.62139618 C535.53408577 338.40042885 533.79319174 336.84397201 531.209328 335.12139618 C531.209328 334.46139618 531.209328 333.80139618 531.209328 333.12139618 C530.3740155 332.75014618 530.3740155 332.75014618 529.521828 332.37139618 C526.78521886 330.892148 524.5328193 329.18672179 522.209328 327.12139618 C522.209328 326.46139618 522.209328 325.80139618 522.209328 325.12139618 C521.62022643 324.849404 521.03112487 324.57741181 520.42417175 324.29717743 C518.25540852 323.14585869 516.61426384 321.92155943 514.771828 320.30889618 C514.21624206 319.82807587 513.66065612 319.34725556 513.08823425 318.85186493 C511.68679313 317.56114058 510.32099645 316.23151161 508.974953 314.88311493 C505.51680192 311.42984825 501.96283999 308.08764542 498.396828 304.74639618 C497.38652526 303.79506806 497.38652526 303.79506806 496.35581237 302.82452118 C488.17405055 294.99123779 488.17405055 294.99123779 479.209328 288.12139618 C479.209328 287.46139618 479.209328 286.80139618 479.209328 286.12139618 C478.42235534 285.81395478 478.42235534 285.81395478 477.61948425 285.50030243 C474.15174305 283.51632733 471.5166012 280.81642833 468.646828 278.05889618 C464.32763148 273.96925216 459.97969487 270.02518968 455.334328 266.30889618 C451.31850692 263.09271151 447.68010467 259.70176388 444.09604675 256.01592743 C441.6295948 253.53926243 439.01569923 251.26928059 436.365578 248.99248993 C432.95912576 246.03652867 429.64099965 242.98313965 426.3108905 239.94170868 C424.34209379 238.08462952 424.34209379 238.08462952 422.209328 237.12139618 C422.209328 236.46139618 422.209328 235.80139618 422.209328 235.12139618 C421.3740155 234.75014618 421.3740155 234.75014618 420.521828 234.37139618 C417.78521886 232.892148 415.5328193 231.18672179 413.209328 229.12139618 C413.209328 228.46139618 413.209328 227.80139618 413.209328 227.12139618 C412.66792175 226.88420868 412.1265155 226.64702118 411.568703 226.40264618 C408.57682662 224.77791862 406.09773401 222.77120849 403.459328 220.62139618 C401.98206237 219.43030243 401.98206237 219.43030243 400.474953 218.21514618 C399.72729675 217.52420868 398.9796405 216.83327118 398.209328 216.12139618 C398.209328 215.46139618 398.209328 214.80139618 398.209328 214.12139618 C397.61490905 213.84610077 397.02049011 213.57080536 396.40805846 213.28716767 C394.31434587 212.17707688 392.78735495 211.04290897 391.0296405 209.46905243 C390.43796081 208.94561249 389.84628112 208.42217255 389.23667175 207.88287079 C388.60889831 207.32220917 387.98112487 206.76154755 387.334328 206.18389618 C381.28395521 200.85959762 375.09573088 195.79306969 368.724953 190.85967743 C365.71811276 188.5308009 362.76120393 186.14565358 359.81040221 183.74639618 C337.54596965 165.70462968 313.22640079 149.12915531 288.209328 135.12139618 C287.45909362 134.69455536 286.70885925 134.26771454 285.9358905 133.82793915 C252.76183281 115.10212544 217.94349187 109.13927255 180.26328689 108.30410111 C175.90695992 108.20687285 171.55079082 108.10607984 167.19478637 107.99528229 C118.47025456 106.76519452 69.73126049 106.92229026 20.99484521 106.93329632 C17.50635578 106.93389886 14.01786676 106.93394621 10.52937728 106.93381226 C-72.10368119 106.92623086 -72.10368119 106.92623086 -154.728172 107.99639618 C-155.78235196 108.0161765 -156.83653191 108.03595681 -157.92265671 108.05633652 C-211.95739076 109.07093965 -262.96831555 113.62094983 -307.790672 147.12139618 C-308.59762513 147.69889618 -309.40457825 148.27639618 -310.2359845 148.87139618 C-318.14656177 154.53867542 -325.84472965 160.48344702 -333.56020325 166.41143525 C-335.74757404 168.08835567 -337.93998187 169.75842823 -340.134422 171.42608368 C-348.23513125 177.58660259 -356.24784761 183.83885659 -364.1734845 190.22295868 C-367.12782998 192.5994526 -370.11106055 194.93588888 -373.10512513 197.26202118 C-379.12609195 201.94424789 -384.97761709 206.781536 -390.74306458 211.77496064 C-394.29411341 214.84926451 -397.88797929 217.85489012 -401.540672 220.80889618 C-405.97688504 224.41128357 -410.24146314 228.16509141 -414.46645325 232.01202118 C-416.51109535 233.86766275 -418.57851349 235.68895995 -420.665672 237.49639618 C-424.09399393 240.48056304 -427.44688001 243.54328102 -430.790672 246.62139618 C-434.73786817 250.25497279 -438.71415895 253.84550991 -442.775047 257.35186493 C-444.34503635 258.73016953 -445.89277639 260.13383231 -447.431297 261.54717743 C-448.33364075 262.37604462 -449.2359845 263.20491181 -450.165672 264.05889618 C-450.99840638 264.83104462 -451.83114075 265.60319306 -452.6891095 266.39873993 C-454.790672 268.12139618 -454.790672 268.12139618 -456.790672 268.12139618 C-456.790672 268.78139618 -456.790672 269.44139618 -456.790672 270.12139618 C-458.1891095 271.53155243 -458.1891095 271.53155243 -460.165672 273.18389618 C-464.4490166 276.80944143 -468.57439334 280.58339166 -472.6891095 284.39873993 C-474.790672 286.12139618 -474.790672 286.12139618 -476.790672 286.12139618 C-477.120672 287.11139618 -477.450672 288.10139618 -477.790672 289.12139618 C-479.5328595 290.91045868 -479.5328595 290.91045868 -481.665672 292.74639618 C-482.71367982 293.66291962 -482.71367982 293.66291962 -483.7828595 294.59795868 C-485.790672 296.12139618 -485.790672 296.12139618 -488.790672 297.12139618 C-488.790672 297.78139618 -488.790672 298.44139618 -488.790672 299.12139618 C-490.1891095 300.53155243 -490.1891095 300.53155243 -492.165672 302.18389618 C-499.95555244 308.81416219 -507.48692224 315.72658981 -514.97304505 322.69634736 C-517.84270482 325.3591194 -520.74923692 327.96808578 -523.7047345 330.53545868 C-527.74221744 334.05272191 -531.64970304 337.69355817 -535.540672 341.37139618 C-536.93485474 342.68166295 -538.32938955 343.99155519 -539.72426575 345.30108368 C-541.69772569 347.15489766 -543.67106919 349.00882512 -545.64272279 350.86456025 C-547.29168789 352.41343432 -548.94643275 353.95584654 -550.603172 355.49639618 C-551.53774232 356.37038056 -552.47231263 357.24436493 -553.43520325 358.14483368 C-555.790672 360.12139618 -555.790672 360.12139618 -558.790672 361.12139618 C-559.120672 362.11139618 -559.450672 363.10139618 -559.790672 364.12139618 C-561.21645325 365.55889618 -561.21645325 365.55889618 -563.103172 367.12139618 C-566.6289552 370.11392036 -570.07634642 373.17674785 -573.478172 376.30889618 C-573.98010072 376.76981659 -574.48202943 377.230737 -574.9991681 377.7056247 C-577.76491145 380.24804447 -580.5224474 382.79912973 -583.275047 385.35577118 C-583.85166077 385.89049042 -584.42827454 386.42520966 -585.02236146 386.97613251 C-586.12911808 388.00305439 -587.23450854 389.03145136 -588.33827943 390.06158173 C-591.38892487 392.89201278 -594.52911318 395.53909488 -597.790672 398.12139618 C-600.024598 400.29653465 -602.20286655 402.51914834 -604.38051575 404.75030243 C-607.40164227 407.81253271 -610.46718625 410.7518908 -613.728172 413.55889618 C-616.53643548 415.97757397 -619.19037793 418.48039301 -621.790672 421.12139618 C-625.0122575 424.39341746 -628.37659346 427.41455673 -631.85707825 430.40655243 C-633.74561798 432.08143918 -635.52222848 433.82087205 -637.290672 435.62139618 C-641.52315934 439.92121855 -646.07562617 443.8223201 -650.67739075 447.71905243 C-653.32834654 449.96747697 -655.85986985 452.19232397 -658.290672 454.68389618 C-659.528172 455.89045868 -659.528172 455.89045868 -660.790672 457.12139618 C-661.66280335 457.98659882 -662.5349347 458.85180146 -663.43349427 459.74322236 C-669.3607396 463.88208379 -677.08640096 462.7297717 -684.00551575 462.60967743 C-685.58733723 462.60034123 -687.16917325 462.59322893 -688.75101441 462.58823884 C-692.89583115 462.56923211 -697.03975895 462.52018772 -701.18422669 462.46471894 C-705.42075804 462.4133886 -709.65743433 462.39069553 -713.89418763 462.36553681 C-722.19342175 462.31206122 -730.49193601 462.2268272 -738.790672 462.12139618 C-738.790672 461.13139618 -738.790672 460.14139618 -738.790672 459.12139618 C-738.130672 459.12139618 -737.470672 459.12139618 -736.790672 459.12139618 C-736.69528138 458.57998993 -736.59989075 458.03858368 -736.5016095 457.48077118 C-731.73096168 441.64851138 -716.55863799 425.69599882 -706.9547345 412.49639618 C-704.87972504 409.64025137 -702.83335542 406.76722444 -700.8141095 403.87139618 C-700.35463929 403.2154245 -699.89516907 402.55945282 -699.42177552 401.88360322 C-698.56264255 400.65399798 -697.70868717 399.42075374 -696.86074036 398.1834079 C-695.88649537 396.79364856 -694.84491333 395.45149376 -693.790672 394.12139618 C-693.130672 394.12139618 -692.470672 394.12139618 -691.790672 394.12139618 C-691.584422 393.46139618 -691.378172 392.80139618 -691.165672 392.12139618 C-689.29942948 388.04959432 -686.81505674 384.4334262 -683.790672 381.12139618 C-683.130672 381.12139618 -682.470672 381.12139618 -681.790672 381.12139618 C-681.54575013 380.40338837 -681.30082825 379.68538056 -681.0484845 378.94561493 C-679.63613185 375.77440075 -677.90869914 373.57941773 -675.665672 370.93389618 C-674.85485169 369.96581025 -674.04403138 368.99772431 -673.20864075 368.00030243 C-672.41071107 367.05026337 -671.61278138 366.10022431 -670.790672 365.12139618 C-669.51397121 363.54279019 -668.24290632 361.95960553 -666.978172 360.37139618 C-664.65846092 357.46255212 -662.33747037 354.55482029 -660.009422 351.65264618 C-655.5072771 346.03746284 -651.01307623 340.41834072 -646.58876771 334.74151337 C-642.15944026 329.0604022 -637.61720749 323.50783766 -632.93300599 318.03521454 C-627.07763978 311.16316771 -621.29391782 304.10865586 -616.103172 296.71905243 C-615.670047 296.19182587 -615.236922 295.66459931 -614.790672 295.12139618 C-614.130672 295.12139618 -613.470672 295.12139618 -612.790672 295.12139618 C-612.522547 294.54905243 -612.254422 293.97670868 -611.978172 293.38702118 C-610.74934564 291.04254984 -609.36545024 288.99734681 -607.790672 286.87139618 C-607.0172345 285.81178681 -607.0172345 285.81178681 -606.228172 284.73077118 C-605.753797 284.19967743 -605.279422 283.66858368 -604.790672 283.12139618 C-604.130672 283.12139618 -603.470672 283.12139618 -602.790672 283.12139618 C-602.55992982 282.581279 -602.32918763 282.04116181 -602.09145325 281.48467743 C-600.4140829 278.43720277 -598.24360175 275.92552747 -595.978172 273.30889618 C-595.26588441 272.47587983 -595.26588441 272.47587983 -594.53920716 271.62603486 C-591.77870109 268.40455193 -588.99430982 265.20393323 -586.20864075 262.00420868 C-585.61865296 261.32592011 -585.02866517 260.64763154 -584.42079896 259.94878876 C-583.26419327 258.62100093 -582.10522924 257.29526319 -580.94374818 255.97173798 C-578.06248874 252.76062641 -578.06248874 252.76062641 -575.790672 249.12139618 C-575.130672 249.12139618 -574.470672 249.12139618 -573.790672 249.12139618 C-573.43489075 248.30928681 -573.43489075 248.30928681 -573.071922 247.48077118 C-571.44719444 244.48889481 -569.44048431 242.00980219 -567.290672 239.37139618 C-566.4966095 238.38655243 -565.702547 237.40170868 -564.884422 236.38702118 C-564.1934845 235.63936493 -563.502547 234.89170868 -562.790672 234.12139618 C-562.130672 234.12139618 -561.470672 234.12139618 -560.790672 234.12139618 C-560.543172 233.56452118 -560.295672 233.00764618 -560.040672 232.43389618 C-558.56142382 229.69728705 -556.85599761 227.44488749 -554.790672 225.12139618 C-554.130672 225.12139618 -553.470672 225.12139618 -552.790672 225.12139618 C-552.501922 224.52327118 -552.213172 223.92514618 -551.915672 223.30889618 C-550.790672 221.12139618 -550.790672 221.12139618 -548.790672 218.12139618 C-548.130672 218.12139618 -547.470672 218.12139618 -546.790672 218.12139618 C-546.522547 217.53873993 -546.254422 216.95608368 -545.978172 216.35577118 C-544.7758621 214.09353018 -543.45241288 212.31563301 -541.790672 210.37139618 C-541.275047 209.75780243 -540.759422 209.14420868 -540.228172 208.51202118 C-538.790672 207.12139618 -538.790672 207.12139618 -536.790672 207.12139618 C-536.52190247 206.53044159 -536.25313294 205.939487 -535.97621888 205.3306247 C-534.78772318 203.11590115 -533.55090443 201.58580542 -531.821922 199.77373993 C-531.25086732 199.16852509 -530.67981263 198.56331025 -530.09145325 197.93975556 C-529.20006654 197.00873017 -529.20006654 197.00873017 -528.290672 196.05889618 C-527.11169017 194.81981441 -525.93453327 193.57899305 -524.759422 192.33623993 C-524.23799622 191.79088593 -523.71657044 191.24553193 -523.17934388 190.68365204 C-521.58468067 188.96212155 -521.58468067 188.96212155 -519.790672 186.12139618 C-519.130672 186.12139618 -518.470672 186.12139618 -517.790672 186.12139618 C-517.53672669 185.53873993 -517.28278138 184.95608368 -517.02114075 184.35577118 C-515.65746868 181.87951586 -514.14841997 180.31618993 -512.103172 178.37139618 C-507.38633914 173.77376126 -503.11033908 168.87482214 -498.868797 163.84014618 C-498.24489075 163.10795868 -497.6209845 162.37577118 -496.978172 161.62139618 C-496.13319154 160.61592743 -496.13319154 160.61592743 -495.27114075 159.59014618 C-493.790672 158.12139618 -493.790672 158.12139618 -491.790672 158.12139618 C-491.790672 157.46139618 -491.790672 156.80139618 -491.790672 156.12139618 C-491.130672 156.12139618 -490.470672 156.12139618 -489.790672 156.12139618 C-489.54703919 155.54905243 -489.30340638 154.97670868 -489.05239075 154.38702118 C-487.56549902 151.7170608 -485.80983292 149.98310612 -483.603172 147.87139618 C-480.82952935 145.16347966 -478.15961786 142.46322008 -475.665672 139.49639618 C-468.02689858 130.60536482 -459.47251271 122.15853302 -450.5016095 114.61748993 C-447.92535084 112.36473407 -445.58536305 109.89252276 -443.2359845 107.40655243 C-441.790672 106.12139618 -441.790672 106.12139618 -439.790672 106.12139618 C-439.460672 105.13139618 -439.130672 104.14139618 -438.790672 103.12139618 C-437.01332825 101.29717743 -437.01332825 101.29717743 -434.853172 99.43389618 C-433.78776185 98.4999704 -433.78776185 98.4999704 -432.70082825 97.54717743 C-430.790672 96.12139618 -430.790672 96.12139618 -428.790672 96.12139618 C-428.790672 95.46139618 -428.790672 94.80139618 -428.790672 94.12139618 C-427.3297345 92.61358368 -427.3297345 92.61358368 -425.415672 90.99639618 C-424.78918763 90.45756806 -424.16270325 89.91873993 -423.5172345 89.36358368 C-421.790672 88.12139618 -421.790672 88.12139618 -419.790672 88.12139618 C-419.790672 87.46139618 -419.790672 86.80139618 -419.790672 86.12139618 C-417.80612909 84.41511738 -415.81221473 82.82361382 -413.728172 81.24639618 C-412.4371978 80.25239577 -411.14685417 79.25757596 -409.85707825 78.26202118 C-409.18563782 77.74575165 -408.51419739 77.22948212 -407.82241029 76.69756806 C-404.56882854 74.1735205 -401.37065764 71.58163781 -398.165672 68.99639618 C-362.71501164 40.5777595 -322.72285939 15.25815972 -277.728172 5.87139618 C-276.96182435 5.70800751 -276.19547669 5.54461884 -275.40590638 5.376279 C-262.15466933 2.78027642 -248.37543739 2.91963183 -234.915672 2.62139618 C-233.18569242 2.58083386 -231.45571715 2.54008758 -229.72574586 2.49917328 C-224.08084705 2.36735706 -218.43578428 2.24368165 -212.790672 2.12139618 C-211.31048144 2.08913311 -211.31048144 2.08913311 -209.80038804 2.05621827 C-194.46423715 1.7226351 -179.12766997 1.41332283 -163.790672 1.12139618 C-162.92364907 1.10477433 -162.05662614 1.08815247 -161.16332978 1.07102692 C-107.44718117 0.04500447 -53.72404694 0.0208099 0 0 Z " fill="#FFFFFF" transform="translate(1496.7906720042229,1617.8786038160324)"/>
<path d="M0 0 C9.08419242 -0.20933336 18.1675441 -0.36884316 27.25362968 -0.46630955 C31.47366923 -0.51311077 35.69204867 -0.57649087 39.91113281 -0.67895508 C43.98968712 -0.77737663 48.06665417 -0.83068575 52.14630508 -0.85389519 C53.6957204 -0.87041457 55.24505718 -0.90267523 56.79378891 -0.95157051 C64.69214585 -1.19081496 70.60743495 -1.19080908 76.83837891 4.36547852 C78.25900594 5.87964308 79.65101641 7.42167216 81 9 C82.02261345 10.01915658 83.05245831 11.03118499 84.09375 12.03125 C84.8878125 12.8459375 85.681875 13.660625 86.5 14.5 C89.45225813 17.6593567 89.45225813 17.6593567 93 20 C93 20.66 93 21.32 93 22 C93.87398437 22.38091797 93.87398437 22.38091797 94.765625 22.76953125 C97.24188033 24.13320333 98.80520626 25.64225203 100.75 27.6875 C103.4302304 30.44231937 106.14581567 33.05924859 109.0625 35.5625 C111.64953738 37.78644441 114.10946833 40.06610268 116.5 42.5 C120.77783781 46.84589432 125.36197623 50.82163189 130.0625 54.703125 C130.701875 55.23421875 131.34125 55.7653125 132 56.3125 C132.5775 56.78300781 133.155 57.25351563 133.75 57.73828125 C135 59 135 59 135 61 C135.58265625 61.25394531 136.1653125 61.50789063 136.765625 61.76953125 C139.24188033 63.13320333 140.80520626 64.64225203 142.75 66.6875 C145.30160379 69.36239557 147.94319558 71.84991385 150.734375 74.26953125 C155.85045568 78.70659658 160.73769748 83.37354842 165.64453125 88.0390625 C171.13646905 93.23983723 176.76045901 98.25538888 182.53125 103.14453125 C183.50578125 103.97017578 183.50578125 103.97017578 184.5 104.8125 C185.50546875 105.65748047 185.50546875 105.65748047 186.53125 106.51953125 C188 108 188 108 188 110 C188.59296875 110.26425781 189.1859375 110.52851562 189.796875 110.80078125 C192.08029054 112.04370425 193.47426723 113.30401646 195.25 115.1875 C200.63269283 120.70704095 206.27286142 125.53444265 212.5625 130 C216.66275838 132.92143409 220.23069742 135.97133538 223.66015625 139.65234375 C224.9794674 141.12264379 224.9794674 141.12264379 227 142 C227 142.66 227 143.32 227 144 C227.58265625 144.268125 228.1653125 144.53625 228.765625 144.8125 C231.02786601 146.01480991 232.80576318 147.33825913 234.75 149 C235.36359375 149.515625 235.9771875 150.03125 236.609375 150.5625 C238 152 238 152 238 154 C238.88945313 154.39638672 238.88945313 154.39638672 239.796875 154.80078125 C242.08029054 156.04370425 243.47426723 157.30401646 245.25 159.1875 C248.27296345 162.29993806 251.42331301 165.15942477 254.70703125 167.9921875 C257.46905882 170.41072612 260.17397712 172.88891376 262.875 175.375 C267.41738926 179.55339978 271.98250582 183.70426079 276.578125 187.82421875 C278.19789716 189.27940116 279.81246755 190.74039381 281.421875 192.20703125 C284.98976193 195.45108131 288.56487171 198.6641161 292.296875 201.71875 C292.85004395 202.17193604 293.40321289 202.62512207 293.97314453 203.09204102 C295.55270418 204.37861406 297.13947029 205.65632433 298.7265625 206.93359375 C299.85191406 207.95646484 299.85191406 207.95646484 301 209 C301 209.66 301 210.32 301 211 C301.53109375 211.21269531 302.0621875 211.42539063 302.609375 211.64453125 C305.92153734 213.52250565 308.50914282 216.0805661 311.25 218.6875 C312.42252152 219.78585649 313.59569519 220.88351724 314.76953125 221.98046875 C315.3310791 222.50688965 315.89262695 223.03331055 316.47119141 223.57568359 C319.57548787 226.46780521 322.78275756 229.23509393 326 232 C327.10558285 232.95950397 328.21103968 233.91915314 329.31640625 234.87890625 C336.91287281 241.47821449 336.91287281 241.47821449 344.875 247.625 C345.90625 248.40875 346.9375 249.1925 348 250 C348 250.66 348 251.32 348 252 C348.928125 252.4640625 348.928125 252.4640625 349.875 252.9375 C351.25 253.625 352.625 254.3125 354 255 C354 255.66 354 256.32 354 257 C354.51949219 257.22042969 355.03898437 257.44085937 355.57421875 257.66796875 C358.95156619 259.52251863 361.81748738 261.90047379 364.8125 264.3125 C366.00524062 265.26851347 367.19925044 266.22294562 368.39453125 267.17578125 C368.98186035 267.6445166 369.56918945 268.11325195 370.17431641 268.59619141 C372.05692007 270.0437671 373.9910662 271.38741169 375.94921875 272.73046875 C376.95597656 273.47941406 377.96273438 274.22835938 379 275 C379 275.66 379 276.32 379 277 C379.82177734 277.37125 379.82177734 277.37125 380.66015625 277.75 C383.4799381 279.25639431 385.89136913 281.06535511 388.4375 283 C388.95900635 283.39517822 389.4805127 283.79035645 390.01782227 284.19750977 C391.68180054 285.46080425 393.34151901 286.72949894 395 288 C395.53367187 288.40847168 396.06734375 288.81694336 396.6171875 289.23779297 C401.49716823 292.97663186 406.36730693 296.72810247 411.21875 300.50390625 C422.74376311 309.45749709 434.27176483 318.01405464 447.13427734 324.98486328 C449.0842447 326.04583741 451.02027002 327.12997506 452.95703125 328.21484375 C478.77559883 342.49185682 507.24169478 351.29081512 536.78710938 352.54077148 C537.69649513 352.58138671 538.60588089 352.62200193 539.54282379 352.66384792 C549.30681485 353.08349455 559.07320236 353.33147153 568.84375 353.53515625 C570.33570546 353.5669718 570.33570546 353.5669718 571.85780144 353.59943008 C579.73831173 353.76607032 587.61907394 353.91698968 595.5 354.0625 C596.6905965 354.08471745 597.88119301 354.10693489 599.10786819 354.12982559 C650.72287052 355.0828611 702.3362279 355.19420243 753.95882034 355.1876502 C756.91662881 355.18750105 759.87443649 355.18797086 762.83224487 355.18867874 C807.91308498 355.19932423 852.97632028 355.05581588 898.04875183 354.1206665 C904.80325978 353.98113863 911.55812369 353.86480211 918.31317425 353.75494671 C933.67991875 353.4971547 948.87598023 352.98567714 964 350 C965.29381592 349.74476563 965.29381592 349.74476563 966.61376953 349.484375 C985.78203799 345.56032808 1003.80570985 339.33004346 1021 330 C1021.72960938 329.6090918 1022.45921875 329.21818359 1023.2109375 328.81542969 C1033.44257822 323.31985133 1043.35924274 317.47853369 1053 311 C1053.80953125 310.45714355 1054.6190625 309.91428711 1055.453125 309.35498047 C1073.545338 297.19100905 1091.18952858 284.76346571 1107.89892578 270.74951172 C1111.42241827 267.81558804 1114.99460342 264.94211143 1118.5625 262.0625 C1123.36267072 258.18628674 1128.08782445 254.26844956 1132.6171875 250.07421875 C1134 249 1134 249 1136 249 C1136 248.34 1136 247.68 1136 247 C1137.4609375 245.4921875 1137.4609375 245.4921875 1139.375 243.875 C1140.31472656 243.06675781 1140.31472656 243.06675781 1141.2734375 242.2421875 C1143 241 1143 241 1145 241 C1145 240.34 1145 239.68 1145 239 C1150.47619048 234 1150.47619048 234 1153 234 C1153 233.34 1153 232.68 1153 232 C1154.6785513 230.50370821 1156.41958898 229.07707339 1158.1875 227.6875 C1161.2166834 225.29902741 1164.03527765 222.9640178 1166.73828125 220.20703125 C1169 218 1169 218 1171 218 C1171 217.34 1171 216.68 1171 216 C1172.6376272 214.54597658 1174.33734196 213.16151322 1176.0625 211.8125 C1180.05607376 208.62070511 1183.75069132 205.37262635 1187.3046875 201.70703125 C1190.35918536 198.63141935 1193.54066676 195.61636928 1197 193 C1197.66 193 1198.32 193 1199 193 C1199.33 192.01 1199.66 191.02 1200 190 C1201.65557029 188.52201683 1203.37446586 187.11417647 1205.125 185.75 C1209.10017782 182.58011627 1212.77019549 179.35250973 1216.3046875 175.70703125 C1219.35918536 172.63141935 1222.54066676 169.61636928 1226 167 C1226.66 167 1227.32 167 1228 167 C1228.33 166.01 1228.66 165.02 1229 164 C1230.77734375 162.17578125 1230.77734375 162.17578125 1232.9375 160.3125 C1233.64777344 159.68988281 1234.35804687 159.06726562 1235.08984375 158.42578125 C1237 157 1237 157 1239 157 C1239.33 156.01 1239.66 155.02 1240 154 C1241.49609375 152.4921875 1241.49609375 152.4921875 1243.4375 150.875 C1246.62671753 148.16899725 1249.77158597 145.42934885 1252.875 142.625 C1253.71160156 141.8721875 1254.54820313 141.119375 1255.41015625 140.34375 C1257.17464393 138.74692857 1258.93220409 137.14242651 1260.68359375 135.53125 C1261.55113281 134.7371875 1262.41867187 133.943125 1263.3125 133.125 C1264.09238281 132.40570312 1264.87226562 131.68640625 1265.67578125 130.9453125 C1268.91859889 128.23115589 1271.98676365 126.33774545 1276 125 C1276 124.34 1276 123.68 1276 123 C1277.64453125 121.37890625 1277.64453125 121.37890625 1279.8125 119.5625 C1282.82463265 117.02660668 1282.82463265 117.02660668 1285.63671875 114.27734375 C1287 113 1287 113 1289 113 C1289 112.34 1289 111.68 1289 111 C1290.57421875 109.4140625 1290.57421875 109.4140625 1292.6875 107.625 C1293.78578125 106.68914062 1293.78578125 106.68914062 1294.90625 105.734375 C1296.48355286 104.42780323 1298.08088088 103.14535 1299.6875 101.875 C1301.7411653 100.20986597 1303.56488637 98.4434798 1305.42358398 96.56933594 C1308.78977602 93.21826231 1312.24252671 89.95715658 1315.6875 86.6875 C1316.84475586 85.57665039 1316.84475586 85.57665039 1318.02539062 84.44335938 C1318.76337891 83.74404297 1319.50136719 83.04472656 1320.26171875 82.32421875 C1321.26658325 81.3664856 1321.26658325 81.3664856 1322.29174805 80.3894043 C1324 79 1324 79 1326 79 C1326 78.34 1326 77.68 1326 77 C1327.609375 75.4140625 1327.609375 75.4140625 1329.75 73.625 C1332.06903702 71.66242273 1334.25219284 69.7411705 1336.375 67.5625 C1338 66 1338 66 1340 66 C1340 65.34 1340 64.68 1340 64 C1341.44018555 62.56787109 1341.44018555 62.56787109 1343.44921875 60.8984375 C1346.51471017 58.29287109 1349.48761879 55.63332794 1352.39453125 52.8515625 C1353.12220703 52.15675781 1353.84988281 51.46195313 1354.59960938 50.74609375 C1356.09675917 49.3110499 1357.59148673 47.8734754 1359.08398438 46.43359375 C1359.80521484 45.74652344 1360.52644531 45.05945312 1361.26953125 44.3515625 C1362.23789917 43.42077881 1362.23789917 43.42077881 1363.22583008 42.47119141 C1365 41 1365 41 1368 40 C1368 39.34 1368 38.68 1368 38 C1368.66 38 1369.32 38 1370 38 C1370 37.34 1370 36.68 1370 36 C1371.46875 34.51953125 1371.46875 34.51953125 1373.5 32.8125 C1374.22832031 32.19246094 1374.95664063 31.57242187 1375.70703125 30.93359375 C1376.46371094 30.29550781 1377.22039062 29.65742187 1378 29 C1379.39902085 27.79535864 1380.79498261 26.58715323 1382.1875 25.375 C1382.79980469 24.84648438 1383.41210938 24.31796875 1384.04296875 23.7734375 C1387.28720468 20.83355104 1390.32221127 17.68773995 1393.39453125 14.5703125 C1394.19246094 13.76335938 1394.99039063 12.95640625 1395.8125 12.125 C1396.60269531 11.32320312 1397.39289063 10.52140625 1398.20703125 9.6953125 C1399.12871094 8.80585937 1400.05039063 7.91640625 1401 7 C1401.47318161 6.4157576 1401.94636322 5.8315152 1402.43388367 5.22956848 C1406.05496751 1.26322495 1409.08977708 -0.39175774 1414.5180788 -0.74347401 C1418.26628016 -0.83524574 1422.00235643 -0.77240588 1425.75 -0.68359375 C1427.37522235 -0.67052032 1429.0004725 -0.66056439 1430.62573242 -0.65357971 C1434.88105897 -0.62699026 1439.13468403 -0.55835111 1443.38934326 -0.48065186 C1447.73979683 -0.40874269 1452.0905283 -0.37700953 1456.44140625 -0.34179688 C1464.96171398 -0.26696725 1473.4806447 -0.14766895 1482 0 C1480.39903586 4.22469223 1478.2974418 7.632661 1475.625 11.25 C1474.71682754 12.49954934 1473.80930324 13.74956997 1472.90234375 15 C1472.42651855 15.65355469 1471.95069336 16.30710937 1471.46044922 16.98046875 C1469.00222106 20.3797438 1466.59840056 23.81708724 1464.1875 27.25 C1457.86647098 36.22106146 1451.45863458 45.12757012 1445 54 C1444.43522949 54.77633789 1443.87045898 55.55267578 1443.28857422 56.35253906 C1434.7447759 68.07705146 1425.96905376 79.59806683 1417 91 C1416.49839355 91.63808594 1415.99678711 92.27617188 1415.47998047 92.93359375 C1411.71289678 97.72507095 1411.71289678 97.72507095 1409.90600586 100.01806641 C1406.86355068 103.88373444 1403.86317679 107.77979522 1400.875 111.6875 C1394.9161747 119.4611601 1388.94886105 127.08588326 1382 134 C1381.443125 134.763125 1380.88625 135.52625 1380.3125 136.3125 C1379.879375 136.869375 1379.44625 137.42625 1379 138 C1378.34 138 1377.68 138 1377 138 C1376.7525 138.53625 1376.505 139.0725 1376.25 139.625 C1374.69347463 142.5823982 1372.96564327 145.29724051 1371 148 C1370.34 148 1369.68 148 1369 148 C1368.77054688 148.52851562 1368.54109375 149.05703125 1368.3046875 149.6015625 C1366.57139198 152.78792013 1364.37577972 155.54599867 1362.125 158.375 C1361.6417627 158.98641846 1361.15852539 159.59783691 1360.66064453 160.2277832 C1356.1953934 165.8355247 1351.53641 171.2667242 1346.84765625 176.6875 C1342.07166135 182.21877594 1337.49311806 187.91261917 1332.90234375 193.59765625 C1327.99167934 199.64909206 1322.93743446 205.55625355 1317.81762695 211.43017578 C1312.32860243 217.74146248 1306.92562406 224.13149526 1301.87890625 230.8046875 C1301.25886719 231.52914063 1300.63882813 232.25359375 1300 233 C1299.34 233 1298.68 233 1298 233 C1297.72760498 233.59458008 1297.45520996 234.18916016 1297.17456055 234.80175781 C1296.02970512 236.94440556 1294.87355302 238.42006637 1293.20703125 240.171875 C1292.66272461 240.74969727 1292.11841797 241.32751953 1291.55761719 241.92285156 C1290.98172852 242.52581055 1290.40583984 243.12876953 1289.8125 243.75 C1288.62547304 245.00963593 1287.43926755 246.2700465 1286.25390625 247.53125 C1285.4033667 248.43423828 1285.4033667 248.43423828 1284.53564453 249.35546875 C1282.17808521 251.88019365 1279.91484419 254.48086652 1277.65625 257.09375 C1274.16271531 261.11461069 1270.57693684 265.0534274 1267 269 C1266.33363525 269.73621582 1266.33363525 269.73621582 1265.65380859 270.48730469 C1260.5371592 276.13338641 1255.3714828 281.69292305 1249.93363953 287.03405762 C1248.21275105 288.78369479 1246.6241319 290.57305222 1245.04223633 292.44726562 C1239.83576436 298.43327721 1234.17918101 303.98523077 1228.57421875 309.59375 C1227.37824943 310.79293774 1226.18235325 311.99219842 1224.98652649 313.19152832 C1222.49628192 315.68772334 1220.00401736 318.18188112 1217.51049805 320.67480469 C1214.30971453 323.87548576 1211.11591406 327.08304101 1207.92375469 330.29232025 C1205.46427514 332.76287963 1203.00030342 335.22891992 1200.5350132 337.69367981 C1199.35440362 338.87547163 1198.17542028 340.05889033 1196.99808311 341.24394226 C1195.36106715 342.89069489 1193.71791139 344.53106315 1192.07299805 346.16992188 C1191.58624603 346.6622934 1191.09949402 347.15466492 1190.59799194 347.66195679 C1187.22832884 351 1187.22832884 351 1185 351 C1185 351.66 1185 352.32 1185 353 C1183.671875 354.33984375 1183.671875 354.33984375 1181.75 355.9375 C1178.0902572 359.04568582 1174.52677187 362.24255333 1171 365.5 C1166.9843339 369.19664409 1162.94608743 372.86040147 1158.81640625 376.4296875 C1157.54470132 377.52909692 1156.28240526 378.63944086 1155.02734375 379.7578125 C1154.39957031 380.31210938 1153.77179688 380.86640625 1153.125 381.4375 C1152.57070312 381.93121094 1152.01640625 382.42492188 1151.4453125 382.93359375 C1150 384 1150 384 1148 384 C1148 384.66 1148 385.32 1148 386 C1146.0342637 387.66608138 1144.06616521 389.21748011 1142 390.75 C1141.17048828 391.37648438 1141.17048828 391.37648438 1140.32421875 392.015625 C1139.16784877 392.88755455 1138.00897172 393.75616687 1136.84790039 394.62182617 C1135.58142264 395.56637194 1134.31771929 396.51464585 1133.05639648 397.46606445 C1120.10344094 407.23420433 1106.73681267 416.37200194 1093 425 C1092.38479492 425.38752441 1091.76958984 425.77504883 1091.13574219 426.17431641 C1086.81173868 428.88063114 1082.42789215 431.46770874 1078 434 C1077.23236328 434.44375977 1076.46472656 434.88751953 1075.67382812 435.34472656 C1062.27156339 443.00997442 1048.93766103 448.14777984 1034 452 C1032.7728125 452.32484375 1031.545625 452.6496875 1030.28125 452.984375 C1011.27301484 457.50575132 991.5814385 458.52072374 972.12298584 458.95178223 C969.86655947 459.00303073 967.6102922 459.05921557 965.35400391 459.11621094 C895.48193567 460.86362792 825.58724575 461.17023944 755.69705188 461.12856889 C748.64503494 461.12480062 741.59303206 461.12616146 734.54101562 461.13037109 C662.58272615 461.17221415 590.63279868 460.65122723 518.69036865 459.05926514 C516.07827675 459.00172433 513.46614651 458.94629718 510.85400391 458.89111328 C483.30269428 458.29658538 458.10753844 456.21627562 432 447 C430.52168094 446.5389401 429.04263083 446.08021005 427.5625 445.625 C386.13186346 431.55856867 349.16830406 401.21205312 316.51513672 372.86914062 C314.26441321 370.91810768 312.03298618 369.02360776 309.609375 367.2890625 C309.07828125 366.86367187 308.5471875 366.43828125 308 366 C308 365.34 308 364.68 308 364 C307.41589355 363.73807861 306.83178711 363.47615723 306.22998047 363.20629883 C303.87733698 361.93364594 302.2473609 360.54726477 300.3203125 358.69921875 C299.63839844 358.05146484 298.95648437 357.40371094 298.25390625 356.73632812 C297.55136719 356.06021484 296.84882812 355.38410156 296.125 354.6875 C290.66800652 349.44559546 290.66800652 349.44559546 284.9296875 344.51953125 C282.67047635 342.57660966 280.92827403 340.83070067 279.02734375 338.5859375 C275.60548937 334.57540737 271.93564156 330.8695918 268.19140625 327.1640625 C267.57598969 326.55423523 266.96057312 325.94440796 266.32650757 325.31610107 C263.74775605 322.76480208 261.16514168 320.21748272 258.57836914 317.67431641 C256.67424016 315.80020162 254.77622603 313.92006678 252.87890625 312.0390625 C251.99314659 311.17349228 251.99314659 311.17349228 251.0894928 310.29043579 C249.68804268 308.89778729 248.33840722 307.45334043 247 306 C247 305.34 247 304.68 247 304 C246.34 304 245.68 304 245 304 C243.51953125 302.49609375 243.51953125 302.49609375 241.8125 300.4375 C239.46720242 297.6746132 237.09170595 295.03320243 234.5 292.5 C231.35039293 289.4071426 228.44792437 286.14944435 225.578125 282.796875 C224.03198806 280.98031867 224.03198806 280.98031867 222.296875 279.390625 C221 278 221 278 221 276 C220.34 276 219.68 276 219 276 C217.6953125 274.70703125 217.6953125 274.70703125 216.125 272.8125 C212.82509683 268.92456378 209.41007904 265.17012117 205.9375 261.4375 C194 248.54248606 194 248.54248606 194 246 C193.34 246 192.68 246 192 246 C190.6953125 244.7421875 190.6953125 244.7421875 189.125 242.875 C188.51527344 242.15570312 187.90554688 241.43640625 187.27734375 240.6953125 C186.52582031 239.80585937 185.77429688 238.91640625 185 238 C183.98203904 236.82936182 182.96238993 235.66019032 181.94140625 234.4921875 C180.85661744 233.24492506 179.7719827 231.99752861 178.6875 230.75 C178.15979004 230.14784668 177.63208008 229.54569336 177.08837891 228.92529297 C174.63896143 226.08883436 172.43425255 223.51174563 171 220 C170.34 220 169.68 220 169 220 C167.6672812 218.53309441 166.41086131 216.99677499 165.1875 215.4375 C161.39547556 210.69288971 157.49792347 206.07221404 153.5 201.5 C148.89947388 196.22646969 144.40848426 190.89047497 140.01171875 185.4453125 C137.5046007 182.39782532 134.88136492 179.46697625 132.21484375 176.55859375 C131 175 131 175 131 173 C130.34 173 129.68 173 129 173 C127.276629 170.9726835 125.6618929 168.93468615 124.0625 166.8125 C120.31831903 161.93912159 116.50650312 157.16028698 112.5 152.5 C108.10817022 147.38932107 103.92333493 142.14641879 99.87890625 136.75585938 C97.74008652 133.96424037 95.62430681 131.57466428 92.88671875 129.35546875 C90.35524747 127.2898704 88.53876817 125.43000832 86.625 122.8125 C86.12226562 122.13832031 85.61953125 121.46414063 85.1015625 120.76953125 C84 119 84 119 84 117 C83.34 117 82.68 117 82 117 C80.41568141 115.13842566 78.95142347 113.27426537 77.5 111.3125 C76.59258513 110.10927151 75.68502924 108.90614936 74.77734375 107.703125 C74.08294189 106.7759668 74.08294189 106.7759668 73.37451172 105.83007812 C71.29213716 103.05752401 69.17838577 100.30951363 67.0625 97.5625 C66.65177246 97.0277002 66.24104492 96.49290039 65.81787109 95.94189453 C63.2336655 92.58212665 60.62210438 89.24535138 57.99389648 85.91992188 C48.09925389 73.39764903 38.62609796 60.56183088 29.22119141 47.66943359 C28.11501466 46.15723115 27.00129747 44.65055167 25.88671875 43.14453125 C18.43486068 33.03449535 11.48884148 22.58935253 4.9375 11.875 C4.55537354 11.25979492 4.17324707 10.64458984 3.77954102 10.01074219 C1.75932034 6.65498008 0.6562269 3.83784659 0 0 Z " fill="#FFFFFF" transform="translate(758,997)"/>
</svg>
